<?xml version="1.0" encoding="UTF-8" standalone="no"?>
<svg
   xmlns:dc="http://purl.org/dc/elements/1.1/"
   xmlns:cc="http://creativecommons.org/ns#"
   xmlns:rdf="http://www.w3.org/1999/02/22-rdf-syntax-ns#"
   xmlns:svg="http://www.w3.org/2000/svg"
   xmlns="http://www.w3.org/2000/svg"
   xmlns:sodipodi="http://sodipodi.sourceforge.net/DTD/sodipodi-0.dtd"
   xmlns:inkscape="http://www.inkscape.org/namespaces/inkscape"
   width="5.9999971mm"
   height="6.0000124mm"
   viewBox="0 0 5.9999971 6.0000124"
   version="1.1"
   id="svg2492"
   inkscape:version="1.0.1 (3bc2e813f5, 2020-09-07)"
   sodipodi:docname="arrow-single-route-direction.svg">
  <defs
     id="defs2486" />
  <sodipodi:namedview
     id="base"
     pagecolor="#ffffff"
     bordercolor="#666666"
     borderopacity="1.0"
     inkscape:pageopacity="0.0"
     inkscape:pageshadow="2"
     inkscape:zoom="0.35"
     inkscape:cx="-291.51855"
     inkscape:cy="94.195735"
     inkscape:document-units="mm"
     inkscape:current-layer="layer1"
     inkscape:document-rotation="0"
     showgrid="false"
     inkscape:window-width="1267"
     inkscape:window-height="1041"
     inkscape:window-x="2102"
     inkscape:window-y="0"
     inkscape:window-maximized="0" />
  <metadata
     id="metadata2489">
    <rdf:RDF>
      <cc:Work
         rdf:about="">
        <dc:format>image/svg+xml</dc:format>
        <dc:type
           rdf:resource="http://purl.org/dc/dcmitype/StillImage" />
        <dc:title></dc:title>
      </cc:Work>
    </rdf:RDF>
  </metadata>
  <g
     inkscape:label="Layer 1"
     inkscape:groupmode="layer"
     id="layer1"
     transform="translate(-182.96428,-123.24405)">
    <path
       id="path1283-7-4-8"
       style="stroke:none;stroke-width:0.770173;stroke-miterlimit:4;stroke-dasharray:none;stroke-opacity:0.506024"
       d="m 183.54098,129.01687 c -0.14383,-0.0881 -0.69735,-0.73657 -0.55285,-0.82329 l 4.6214,-2.77381 c 0.14452,-0.0867 0.83983,0.41489 0.98354,0.50298 l 0.26314,0.16115 c 0.14371,0.0881 0.14383,0.23218 0,0.32019 l -4.52938,2.77393 c -0.14383,0.088 -0.37911,0.0881 -0.52282,0 z m 5.05233,-2.45162 c -0.14383,0.0881 -0.84007,0.5904 -0.98378,0.50231 l -4.52921,-2.7738 c -0.14384,-0.0881 0.3167,-0.73447 0.46054,-0.82248 l 0.26302,-0.16116 c 0.14384,-0.0881 0.37912,-0.0881 0.52295,0 l 4.52962,2.77378 c 0.14371,0.0881 0.14384,0.23211 0,0.32019 z"
       sodipodi:nodetypes="cssccccscsccccccss" />
  </g>
</svg>
