<?xml version="1.0" encoding="UTF-8" standalone="no"?>
<svg
   xmlns:dc="http://purl.org/dc/elements/1.1/"
   xmlns:cc="http://creativecommons.org/ns#"
   xmlns:rdf="http://www.w3.org/1999/02/22-rdf-syntax-ns#"
   xmlns:svg="http://www.w3.org/2000/svg"
   xmlns="http://www.w3.org/2000/svg"
   xmlns:sodipodi="http://sodipodi.sourceforge.net/DTD/sodipodi-0.dtd"
   xmlns:inkscape="http://www.inkscape.org/namespaces/inkscape"
   width="19.987799mm"
   height="20.176785mm"
   viewBox="0 0 19.987799 20.176784"
   version="1.1"
   id="svg6110"
   inkscape:version="1.0.1 (3bc2e813f5, 2020-09-07)"
   sodipodi:docname="Bike.svg">
  <defs
     id="defs6104">
    <clipPath
       clipPathUnits="userSpaceOnUse"
       id="clipPath5363-3">
      <ellipse
         style="fill:#ffffff;fill-opacity:0.0160643;stroke:#000000;stroke-width:0.598969;stroke-miterlimit:4;stroke-dasharray:none;stroke-opacity:1"
         id="ellipse5365-6"
         cx="39.831371"
         cy="53.310963"
         rx="53.791309"
         ry="53.419228" />
    </clipPath>
    <clipPath
       clipPathUnits="userSpaceOnUse"
       id="clipPath5357-4">
      <rect
         style="fill:#ffffff;fill-opacity:0.0160643;stroke:#000000;stroke-width:0.0980199;stroke-miterlimit:4;stroke-dasharray:none;stroke-opacity:1"
         id="rect5359-1"
         width="11.788973"
         height="13.491823"
         x="122.12822"
         y="78.854584"
         ry="1.7028518" />
    </clipPath>
    <clipPath
       clipPathUnits="userSpaceOnUse"
       id="clipPath5357-8">
      <rect
         style="fill:#ffffff;fill-opacity:0.0160643;stroke:#000000;stroke-width:0.0980199;stroke-miterlimit:4;stroke-dasharray:none;stroke-opacity:1"
         id="rect5359-19"
         width="11.788973"
         height="13.491823"
         x="122.12822"
         y="78.854584"
         ry="1.7028518" />
    </clipPath>
    <clipPath
       clipPathUnits="userSpaceOnUse"
       id="clipPath5357">
      <rect
         style="fill:#ffffff;fill-opacity:0.0160643;stroke:#000000;stroke-width:0.0980199;stroke-miterlimit:4;stroke-dasharray:none;stroke-opacity:1"
         id="rect5359"
         width="11.788973"
         height="13.491823"
         x="122.12822"
         y="78.854584"
         ry="1.7028518" />
    </clipPath>
    <clipPath
       clipPathUnits="userSpaceOnUse"
       id="clipPath5363">
      <ellipse
         style="fill:#ffffff;fill-opacity:0.0160643;stroke:#000000;stroke-width:0.598969;stroke-miterlimit:4;stroke-dasharray:none;stroke-opacity:1"
         id="ellipse5365"
         cx="39.831371"
         cy="53.310963"
         rx="53.791309"
         ry="53.419228" />
    </clipPath>
    <clipPath
       clipPathUnits="userSpaceOnUse"
       id="clipPath5430-9">
      <rect
         style="fill:#ffffff;fill-opacity:0.0160643;stroke:#000000;stroke-width:0.926506;stroke-miterlimit:4;stroke-dasharray:none;stroke-opacity:1"
         id="rect5432-7"
         width="49.910011"
         height="34.297958"
         x="7.3815045"
         y="3.0668349"
         ry="5.7575994" />
    </clipPath>
    <clipPath
       clipPathUnits="userSpaceOnUse"
       id="clipPath5430-1">
      <rect
         style="fill:#ffffff;fill-opacity:0.0160643;stroke:#000000;stroke-width:0.926506;stroke-miterlimit:4;stroke-dasharray:none;stroke-opacity:1"
         id="rect5432-9"
         width="49.910011"
         height="34.297958"
         x="7.3815045"
         y="3.0668349"
         ry="5.7575994" />
    </clipPath>
  </defs>
  <sodipodi:namedview
     id="base"
     pagecolor="#ffffff"
     bordercolor="#666666"
     borderopacity="1.0"
     inkscape:pageopacity="0.0"
     inkscape:pageshadow="2"
     inkscape:zoom="5.6"
     inkscape:cx="49.293707"
     inkscape:cy="30.844027"
     inkscape:document-units="mm"
     inkscape:current-layer="g6647"
     inkscape:document-rotation="0"
     showgrid="false"
     inkscape:pagecheckerboard="true"
     inkscape:window-width="1920"
     inkscape:window-height="1057"
     inkscape:window-x="-8"
     inkscape:window-y="-8"
     inkscape:window-maximized="1" />
  <metadata
     id="metadata6107">
    <rdf:RDF>
      <cc:Work
         rdf:about="">
        <dc:format>image/svg+xml</dc:format>
        <dc:type
           rdf:resource="http://purl.org/dc/dcmitype/StillImage" />
        <dc:title></dc:title>
      </cc:Work>
    </rdf:RDF>
  </metadata>
  <g
     inkscape:label="Layer 1"
     inkscape:groupmode="layer"
     id="layer1"
     transform="translate(-96.122916,-324.93082)">
    <g
       id="g6647"
       transform="translate(49.231398,248.46266)">
      <g
         id="g1698"
         transform="translate(-73.912778,64.615728)">
        <g
           id="g5368"
           style="fill:#b3cefe;fill-opacity:1;stroke-width:0.9;stroke-miterlimit:4;stroke-dasharray:none"
           transform="translate(29.035332,-63.852697)">
          <ellipse
             style="fill:#b3cefe;fill-opacity:1;stroke:#000000;stroke-width:0.9;stroke-miterlimit:4;stroke-dasharray:none;stroke-opacity:1"
             id="path607-4-5-9-7-7"
             ry="9.6383924"
             rx="9.5438995"
             cy="85.793518"
             cx="101.76286" />
        </g>
        <g
           id="g519"
           transform="matrix(0.16168982,0,0,0.16180401,122.61868,13.723633)"
           style="stroke-width:5.56425;stroke-miterlimit:4;stroke-dasharray:none">
          <g
             id="g500"
             style="stroke-width:5.56425;stroke-miterlimit:4;stroke-dasharray:none">
            <path
               d="m 95,49.9 c 0,-0.9 -0.7,-1.6 -1.6,-1.6 -0.1,0 -0.1,0 -0.2,0 0,-0.5 0,-1.1 -0.1,-1.6 0.1,0 0.1,0 0.2,0 0.9,-0.1 1.5,-0.9 1.4,-1.8 -0.2,-1.7 -0.5,-3.3 -0.8,-5 -0.2,-0.9 -1.1,-1.4 -2,-1.2 -0.1,0 -0.1,0 -0.2,0.1 -0.1,-0.5 -0.3,-1 -0.4,-1.5 0.1,0 0.1,0 0.2,0 0.9,-0.3 1.3,-1.2 1,-2.1 -0.6,-1.6 -1.2,-3.1 -1.9,-4.7 -0.4,-0.8 -1.4,-1.2 -2.2,-0.8 -0.1,0 -0.1,0.1 -0.1,0.1 -0.3,-0.5 -0.5,-0.9 -0.8,-1.4 0.1,0 0.1,-0.1 0.2,-0.1 0.8,-0.5 1,-1.5 0.5,-2.3 -0.9,-1.4 -1.9,-2.8 -2.9,-4.1 -0.6,-0.7 -1.6,-0.8 -2.3,-0.3 0,0 -0.1,0.1 -0.1,0.1 -0.4,-0.4 -0.7,-0.8 -1.1,-1.2 0,0 0.1,-0.1 0.1,-0.1 0.6,-0.6 0.6,-1.7 0,-2.3 -1.2,-1.2 -2.5,-2.3 -3.8,-3.4 -0.7,-0.6 -1.7,-0.4 -2.3,0.3 0,0 -0.1,0.1 -0.1,0.2 -0.4,-0.3 -0.9,-0.6 -1.3,-0.9 0,0 0.1,-0.1 0.1,-0.1 C 75,13.4 74.7,12.4 74,11.9 72.6,11 71.1,10.2 69.6,9.5 c -0.8,-0.4 -1.8,0 -2.2,0.8 0,0.1 0,0.1 -0.1,0.2 -0.5,-0.2 -1,-0.4 -1.5,-0.6 0,-0.1 0,-0.1 0.1,-0.2 C 66.2,8.8 65.7,7.9 64.9,7.6 63.3,7 61.7,6.6 60,6.2 59.1,6 58.2,6.6 58,7.4 c 0,0.1 0,0.1 0,0.2 -0.5,-0.1 -1.1,-0.2 -1.6,-0.3 0,-0.1 0,-0.1 0,-0.2 C 56.5,6.2 55.9,5.4 55,5.3 53.3,5.1 51.7,5 50,5 h -0.1 c -0.9,0 -1.6,0.7 -1.6,1.6 0,0.1 0,0.1 0,0.2 -0.5,0 -1.1,0 -1.6,0.1 0,-0.1 0,-0.1 0,-0.2 -0.1,-0.9 -0.9,-1.5 -1.8,-1.4 -1.7,0.2 -3.3,0.5 -5,0.8 -0.9,0.2 -1.4,1.1 -1.2,2 0,0.1 0,0.1 0.1,0.2 -0.5,0.1 -1,0.3 -1.5,0.4 0,-0.1 0,-0.1 0,-0.2 -0.3,-0.9 -1.2,-1.3 -2.1,-1 -1.6,0.6 -3.1,1.2 -4.7,1.9 -0.8,0.4 -1.2,1.4 -0.8,2.2 0,0.1 0.1,0.1 0.1,0.2 -0.5,0.3 -0.9,0.5 -1.4,0.8 0,-0.1 0,-0.1 -0.1,-0.2 -0.5,-0.8 -1.5,-1 -2.3,-0.5 -1.4,0.9 -2.8,1.9 -4.1,2.9 -0.7,0.6 -0.8,1.6 -0.3,2.3 0,0 0.1,0.1 0.1,0.1 -0.4,0.4 -0.8,0.7 -1.2,1.1 0,0 -0.1,-0.1 -0.1,-0.1 -0.6,-0.6 -1.7,-0.6 -2.3,0 -1.2,1.2 -2.3,2.5 -3.4,3.8 -0.6,0.7 -0.4,1.7 0.3,2.3 0,0 0.1,0.1 0.1,0.1 -0.3,0.4 -0.6,0.9 -0.9,1.3 0,0 -0.1,-0.1 -0.1,-0.1 -0.8,-0.5 -1.8,-0.2 -2.3,0.5 -0.9,1.4 -1.7,2.9 -2.4,4.4 -0.4,0.8 0,1.8 0.8,2.2 0.1,0 0.1,0 0.2,0.1 -0.2,0.5 -0.4,1 -0.6,1.5 -0.1,0 -0.1,-0.1 -0.2,-0.1 -0.9,-0.3 -1.8,0.2 -2.1,1 -0.6,1.6 -1,3.2 -1.4,4.9 -0.2,0.9 0.4,1.8 1.2,2 0.1,0 0.1,0 0.2,0 -0.1,0.5 -0.2,1.1 -0.3,1.6 -0.1,0 -0.1,0 -0.2,0 C 6.1,43.6 5.3,44.2 5.2,45.1 5.1,46.7 5,48.3 5,50 H 6.6 5 c 0,0.9 0.7,1.6 1.6,1.6 0.1,0 0.1,0 0.2,0 0,0.5 0,1.1 0.1,1.6 -0.1,0 -0.1,0 -0.2,0 -0.9,0.1 -1.5,0.9 -1.4,1.8 0.2,1.7 0.5,3.3 0.8,5 0.2,0.8 0.8,1.3 1.6,1.3 0.1,0 0.2,0 0.4,0 0.1,0 0.1,0 0.2,-0.1 0.1,0.5 0.3,1 0.4,1.6 -0.1,0 -0.1,0 -0.2,0 -0.9,0.3 -1.3,1.2 -1,2.1 0.6,1.6 1.2,3.1 1.9,4.7 0.3,0.6 0.9,0.9 1.5,0.9 0.2,0 0.5,-0.1 0.7,-0.2 0.1,0 0.1,-0.1 0.1,-0.1 0.3,0.5 0.5,0.9 0.8,1.4 -0.1,0 -0.1,0 -0.2,0.1 -0.8,0.5 -1,1.5 -0.5,2.3 0.9,1.4 1.9,2.8 2.9,4.1 0.3,0.4 0.8,0.6 1.3,0.6 0.4,0 0.7,-0.1 1,-0.4 0,0 0.1,-0.1 0.1,-0.1 0.4,0.4 0.7,0.8 1.1,1.2 0,0 -0.1,0.1 -0.1,0.1 -0.6,0.6 -0.6,1.7 0,2.3 1.2,1.2 2.5,2.3 3.8,3.4 0.3,0.2 0.7,0.4 1,0.4 0.5,0 1,-0.2 1.3,-0.6 0,0 0.1,-0.1 0.1,-0.1 0.4,0.3 0.9,0.6 1.3,0.9 0,0 -0.1,0.1 -0.1,0.1 -0.5,0.8 -0.3,1.8 0.5,2.3 1.4,0.9 2.9,1.7 4.4,2.4 0.2,0.1 0.5,0.2 0.7,0.2 0.6,0 1.2,-0.3 1.5,-0.9 0,-0.1 0,-0.1 0.1,-0.2 0.5,0.2 1,0.4 1.5,0.6 0,0.1 -0.1,0.1 -0.1,0.2 -0.3,0.9 0.2,1.8 1,2.1 1.6,0.6 3.2,1 4.9,1.4 0.1,0 0.2,0 0.4,0 0.7,0 1.4,-0.5 1.6,-1.3 0,-0.1 0,-0.1 0,-0.2 0.5,0.1 1.1,0.2 1.6,0.3 0,0.1 0,0.1 0,0.2 -0.1,0.9 0.5,1.7 1.4,1.8 1.7,0.2 3.3,0.3 5,0.3 v 0 c 0.9,0 1.6,-0.7 1.6,-1.6 0,-0.1 0,-0.1 0,-0.2 0.5,0 1.1,0 1.6,-0.1 0,0.1 0,0.1 0,0.2 0.1,0.8 0.8,1.5 1.6,1.5 0.1,0 0.1,0 0.2,0 1.7,-0.2 3.3,-0.5 5,-0.8 0.9,-0.2 1.4,-1.1 1.2,-2 0,-0.1 0,-0.1 -0.1,-0.2 0.5,-0.1 1,-0.3 1.6,-0.4 0,0.1 0,0.1 0,0.2 0.2,0.7 0.9,1.1 1.5,1.1 0.2,0 0.4,0 0.5,-0.1 1.6,-0.6 3.2,-1.2 4.7,-1.9 0.8,-0.4 1.2,-1.4 0.8,-2.2 0,-0.1 -0.1,-0.1 -0.1,-0.1 0.5,-0.3 0.9,-0.5 1.4,-0.8 0,0.1 0,0.1 0.1,0.2 0.3,0.5 0.8,0.8 1.4,0.8 0.3,0 0.6,-0.1 0.9,-0.3 1.4,-0.9 2.8,-1.9 4.1,-2.9 0.7,-0.6 0.8,-1.6 0.3,-2.3 0,0 -0.1,-0.1 -0.1,-0.1 0.4,-0.4 0.8,-0.7 1.2,-1.1 0,0 0.1,0.1 0.1,0.1 0.3,0.3 0.7,0.5 1.2,0.5 0.4,0 0.8,-0.2 1.2,-0.5 1.2,-1.2 2.3,-2.4 3.4,-3.8 0.6,-0.7 0.4,-1.7 -0.3,-2.3 0,0 -0.1,-0.1 -0.1,-0.1 0.3,-0.4 0.6,-0.9 0.9,-1.3 0,0 0.1,0.1 0.1,0.1 0.3,0.2 0.6,0.3 0.9,0.3 0.5,0 1.1,-0.3 1.4,-0.8 0.9,-1.4 1.7,-2.9 2.4,-4.4 0.4,-0.8 0.1,-1.8 -0.8,-2.2 -0.1,0 -0.1,0 -0.2,-0.1 0.2,-0.5 0.4,-1 0.6,-1.5 0.1,0 0.1,0.1 0.2,0.1 0.2,0.1 0.4,0.1 0.5,0.1 0.7,0 1.3,-0.4 1.5,-1.1 0.6,-1.6 1,-3.2 1.4,-4.9 0.2,-0.9 -0.4,-1.8 -1.2,-2 -0.1,0 -0.1,0 -0.2,0 0.1,-0.5 0.2,-1.1 0.3,-1.6 0.1,0 0.1,0 0.2,0 0.1,0 0.1,0 0.2,0 0.8,0 1.5,-0.6 1.6,-1.5 0.2,-1.7 0.3,-3.4 0.3,-5.2 z M 50,85.1 C 30.7,85.1 14.9,69.4 14.9,50 14.9,30.7 30.6,14.9 50,14.9 69.4,14.9 85.1,30.7 85.1,50 85.1,69.3 69.3,85.1 50,85.1 Z"
               id="path496"
               style="stroke-width:5.56425;stroke-miterlimit:4;stroke-dasharray:none" />
            <path
               d="M 50,15.5 C 31,15.5 15.5,31 15.5,50 15.5,69 31,84.5 50,84.5 69,84.5 84.5,69 84.5,50 84.5,31 69,15.5 50,15.5 Z m -13.2,5.3 11.5,26.5 c -0.1,0.1 -0.2,0.1 -0.3,0.2 L 27.7,27.1 c 2.6,-2.6 5.7,-4.7 9.1,-6.3 z m -9.7,6.9 20.4,20.4 c -0.1,0.1 -0.2,0.3 -0.3,0.4 L 20.3,37.9 c 1.6,-3.8 3.9,-7.3 6.8,-10.2 z m -7.1,11 26.9,10.6 c 0,0.1 -0.1,0.2 -0.1,0.4 H 18 c 0,-4 0.8,-7.6 2,-11 z m -2,11.7 h 28.9 c 0,0.2 0.1,0.3 0.1,0.5 L 20.5,62.4 C 18.9,58.7 18,54.7 18,50.4 Z m 2.8,12.8 26.5,-11.5 c 0.1,0.1 0.1,0.2 0.2,0.3 L 27.1,72.3 c -2.6,-2.6 -4.7,-5.7 -6.3,-9.1 z m 6.9,9.7 20.4,-20.4 c 0.1,0.1 0.3,0.2 0.4,0.3 L 37.9,79.7 C 34.1,78.1 30.6,75.8 27.7,72.9 Z M 49.6,82 C 45.8,82 42.1,81.2 38.7,79.9 L 49.3,53 c 0.1,0 0.2,0.1 0.4,0.1 V 82 Z m 0,-35.1 c -0.2,0 -0.3,0.1 -0.5,0.1 L 37.6,20.5 c 3.7,-1.6 7.8,-2.4 12,-2.5 z M 72.3,27.1 51.9,47.5 C 51.8,47.4 51.6,47.3 51.5,47.2 L 62.1,20.3 c 3.8,1.6 7.3,3.9 10.2,6.8 z M 50.4,18 c 3.8,0 7.5,0.8 10.9,2.1 L 50.8,46.9 c -0.1,0 -0.2,-0.1 -0.4,-0.1 z m 0,64 V 53.1 c 0.2,0 0.3,-0.1 0.5,-0.1 L 62.4,79.5 C 58.7,81.1 54.7,82 50.4,82 Z M 63.2,79.2 51.6,52.7 c 0.1,-0.1 0.2,-0.1 0.3,-0.2 l 20.4,20.4 c -2.6,2.6 -5.7,4.7 -9.1,6.3 z M 72.9,72.3 52.5,51.9 c 0.1,-0.1 0.2,-0.3 0.3,-0.4 l 26.9,10.6 c -1.6,3.8 -3.9,7.3 -6.8,10.2 z M 80,61.3 53.1,50.8 c 0,-0.1 0.1,-0.2 0.1,-0.4 H 82 c 0,3.9 -0.8,7.5 -2,10.9 z M 82,49.6 H 53.1 C 53.1,49.4 53,49.3 53,49.1 L 79.5,37.6 c 1.6,3.7 2.5,7.7 2.5,12 z M 52.7,48.4 C 52.6,48.3 52.6,48.2 52.5,48.1 L 72.9,27.7 c 2.6,2.7 4.7,5.8 6.3,9.2 z"
               id="path498"
               style="stroke-width:5.56425;stroke-miterlimit:4;stroke-dasharray:none" />
          </g>
        </g>
      </g>
    </g>
  </g>
</svg>
