<?xml version="1.0" encoding="UTF-8" standalone="no"?>
<svg
   xmlns:dc="http://purl.org/dc/elements/1.1/"
   xmlns:cc="http://creativecommons.org/ns#"
   xmlns:rdf="http://www.w3.org/1999/02/22-rdf-syntax-ns#"
   xmlns:svg="http://www.w3.org/2000/svg"
   xmlns="http://www.w3.org/2000/svg"
   xmlns:sodipodi="http://sodipodi.sourceforge.net/DTD/sodipodi-0.dtd"
   xmlns:inkscape="http://www.inkscape.org/namespaces/inkscape"
   width="8.615097mm"
   height="7.8210802mm"
   viewBox="0 0 8.615097 7.8210802"
   version="1.1"
   id="svg8"
   inkscape:version="1.0.1 (3bc2e813f5, 2020-09-07)"
   sodipodi:docname="Button-Fullscreen.svg">
  <defs
     id="defs2">
    <clipPath
       clipPathUnits="userSpaceOnUse"
       id="clipPath90">
      <rect
         style="fill:#ffffff;stroke:#000000;stroke-width:1.88976;stroke-miterlimit:0;stroke-dashoffset:6.80315"
         id="rect92"
         width="81.071426"
         height="52.142853"
         x="-12.323519"
         y="-2.0895102" />
    </clipPath>
    <clipPath
       clipPathUnits="userSpaceOnUse"
       id="clipPath935">
      <rect
         style="fill:none;stroke:#000000;stroke-width:0.366303;stroke-miterlimit:0;stroke-dasharray:none;stroke-dashoffset:6.80315"
         id="rect937"
         width="42.560993"
         height="29.558985"
         x="3.719008"
         y="10.484007" />
    </clipPath>
    <clipPath
       clipPathUnits="userSpaceOnUse"
       id="clipPath935-9">
      <rect
         style="fill:none;stroke:#000000;stroke-width:0.366303;stroke-miterlimit:0;stroke-dasharray:none;stroke-dashoffset:6.80315"
         id="rect937-1"
         width="42.560993"
         height="29.558985"
         x="3.719008"
         y="10.484007" />
    </clipPath>
    <clipPath
       clipPathUnits="userSpaceOnUse"
       id="clipPath983">
      <rect
         style="fill:none;stroke:#000000;stroke-width:0.377953;stroke-miterlimit:0;stroke-dasharray:none;stroke-dashoffset:6.80315"
         id="rect985"
         width="42.559994"
         height="9.9812794"
         x="3.7190032"
         y="30.06172" />
    </clipPath>
  </defs>
  <sodipodi:namedview
     id="base"
     pagecolor="#ffffff"
     bordercolor="#666666"
     borderopacity="1.0"
     inkscape:pageopacity="0.0"
     inkscape:pageshadow="2"
     inkscape:zoom="5.6"
     inkscape:cx="13.327485"
     inkscape:cy="52.446228"
     inkscape:document-units="mm"
     inkscape:current-layer="layer1"
     inkscape:document-rotation="0"
     showgrid="false"
     inkscape:window-width="1920"
     inkscape:window-height="1057"
     inkscape:window-x="-8"
     inkscape:window-y="-8"
     inkscape:window-maximized="1"
     showguides="false" />
  <metadata
     id="metadata5">
    <rdf:RDF>
      <cc:Work
         rdf:about="">
        <dc:format>image/svg+xml</dc:format>
        <dc:type
           rdf:resource="http://purl.org/dc/dcmitype/StillImage" />
        <dc:title></dc:title>
      </cc:Work>
    </rdf:RDF>
  </metadata>
  <g
     inkscape:label="Layer 1"
     inkscape:groupmode="layer"
     id="layer1"
     transform="translate(-47.663857,-113.89566)">
    <g
       id="g1086">
      <path
         d="m 53.34446,114.25179 c 0,0.19738 0.159544,0.35639 0.356394,0.35639 h 1.865577 v 1.63856 c 0,0.19606 0.159279,0.35587 0.356129,0.35587 0.196056,0 0.356394,-0.15981 0.356394,-0.35587 v -2.35082 h -2.577836 c -0.197114,-2.6e-4 -0.356658,0.15955 -0.356658,0.35587 z"
         id="path1003"
         style="stroke-width:0.264583" />
      <path
         d="m 50.157026,113.89566 h -2.492904 v 2.35082 c 0,0.19606 0.159808,0.35586 0.356129,0.35586 0.197379,0 0.356394,-0.1598 0.356394,-0.35586 v -1.63856 h 1.780381 c 0.196586,0 0.356394,-0.15902 0.356394,-0.3564 -2.65e-4,-0.19605 -0.160073,-0.35586 -0.356394,-0.35586 z"
         id="path1005"
         style="stroke-width:0.264583" />
      <path
         d="M 50.157026,121.00422 H 48.37638 v -1.55231 c 0,-0.19685 -0.159014,-0.35613 -0.356393,-0.35613 -0.196057,0 -0.35613,0.15928 -0.35613,0.35613 v 2.26483 h 2.492905 c 0.196585,0 0.356393,-0.15928 0.356393,-0.35639 0,-0.19685 -0.159808,-0.35613 -0.356129,-0.35613 z"
         id="path1007"
         style="stroke-width:0.264583" />
      <path
         d="m 55.92256,119.09578 c -0.19685,0 -0.356129,0.15928 -0.356129,0.35613 v 1.55231 h -1.865577 c -0.19685,0 -0.356394,0.15954 -0.356394,0.35613 0,0.19711 0.159544,0.35639 0.356394,0.35639 h 2.577835 v -2.26483 c 0,-0.19712 -0.159279,-0.35613 -0.356129,-0.35613 z"
         id="path1009"
         style="stroke-width:0.264583" />
    </g>
  </g>
</svg>
