<?xml version="1.0" encoding="UTF-8" standalone="no"?>
<svg
   xmlns:dc="http://purl.org/dc/elements/1.1/"
   xmlns:cc="http://creativecommons.org/ns#"
   xmlns:rdf="http://www.w3.org/1999/02/22-rdf-syntax-ns#"
   xmlns:svg="http://www.w3.org/2000/svg"
   xmlns="http://www.w3.org/2000/svg"
   xmlns:sodipodi="http://sodipodi.sourceforge.net/DTD/sodipodi-0.dtd"
   xmlns:inkscape="http://www.inkscape.org/namespaces/inkscape"
   width="130.1449mm"
   height="65.954887mm"
   viewBox="0 0 130.1449 65.954889"
   version="1.1"
   id="svg1862"
   inkscape:version="1.0.1 (3bc2e813f5, 2020-09-07)"
   sodipodi:docname="Logo_TucksInferno.svg">
  <defs
     id="defs1856" />
  <sodipodi:namedview
     id="base"
     pagecolor="#ffffff"
     bordercolor="#666666"
     borderopacity="1.0"
     inkscape:pageopacity="0.0"
     inkscape:pageshadow="2"
     inkscape:zoom="1.4"
     inkscape:cx="109.01983"
     inkscape:cy="102.16836"
     inkscape:document-units="mm"
     inkscape:current-layer="layer1"
     inkscape:document-rotation="0"
     showgrid="false"
     inkscape:pagecheckerboard="true"
     inkscape:window-width="1920"
     inkscape:window-height="1057"
     inkscape:window-x="-8"
     inkscape:window-y="-8"
     inkscape:window-maximized="1" />
  <metadata
     id="metadata1859">
    <rdf:RDF>
      <cc:Work
         rdf:about="">
        <dc:format>image/svg+xml</dc:format>
        <dc:type
           rdf:resource="http://purl.org/dc/dcmitype/StillImage" />
        <dc:title></dc:title>
      </cc:Work>
    </rdf:RDF>
  </metadata>
  <g
     inkscape:label="Layer 1"
     inkscape:groupmode="layer"
     id="layer1"
     transform="translate(-38.479217,-150.97359)"
     style="display:inline">
    <g
       id="g2495">
      <rect
         style="fill:#0043a6;fill-opacity:0.453815;stroke:#000000;stroke-width:0.0526746;stroke-miterlimit:0"
         id="rect2481"
         width="130.09222"
         height="65.902214"
         x="38.505554"
         y="150.99992"
         ry="2.2326531"
         rx="1.4065315" />
      <g
         id="g2479"
         transform="translate(84.288691,-2.6458333)">
        <path
           style="fill:#b6b6b8;stroke-width:0.264583"
           d="m 81.468798,212.80136 c 0,-2.91042 -0.0893,-5.29242 -0.19843,-5.29334 -0.10914,-7.9e-4 -0.41052,-0.37424 -0.66972,-0.82959 -0.50932,-0.89472 -0.67317,-0.88919 -0.84994,0.0287 -0.1557,0.80848 -0.63173,1.33172 -1.21157,1.33172 -0.26599,0 -0.59194,0.19355 -0.72433,0.43011 -0.19867,0.35502 -0.27295,0.29727 -0.42537,-0.33073 -0.10157,-0.41846 -0.68377,-2.07053 -1.2938,-3.67126 l -1.10913,-2.91041 -0.0743,3.24114 c -0.0409,1.78263 -0.16587,3.24115 -0.27781,3.24115 -0.35817,0 -0.83852,-0.62037 -0.83852,-1.08294 0,-0.45781 -0.67619,-0.87303 -1.04776,-0.64339 -0.11344,0.0701 -0.35527,0.48722 -0.53739,0.9269 -0.18212,0.43968 -0.43575,0.79943 -0.56362,0.79943 -0.12786,0 -0.23248,0.17859 -0.23248,0.39687 0,0.21828 -0.11906,0.39688 -0.26459,0.39688 -0.1584,0 -0.26458,1.04147 -0.26458,2.59526 0,1.95126 -0.1021,2.72271 -0.41147,3.10886 -0.38596,0.48175 -0.39069,0.47259 -0.0762,-0.14787 0.25543,-0.50391 0.33768,-3.4973 0.34532,-12.56771 0.006,-6.54844 0.0457,-11.22164 0.0894,-10.3849 l 0.0793,1.52136 h 1.24531 c 0.68493,0 1.65516,0.11754 2.15609,0.2612 0.6743,0.19339 0.96474,0.17622 1.11868,-0.0661 0.15393,-0.24236 0.20803,-0.22431 0.20838,0.0695 8e-4,0.58055 1.42889,4.22617 1.65715,4.23004 0.10687,0.002 0.15554,-1.63381 0.10816,-3.63473 -0.0474,-2.00091 -0.0411,-2.74211 0.0139,-1.64711 l 0.10001,1.9909 1.90849,0.54565 1.90849,0.54565 0.13229,-2.66885 c 0.0728,-1.46786 0.15009,3.67124 0.17184,11.42022 0.0217,7.74899 -0.008,14.08906 -0.0662,14.08906 -0.0581,0 -0.10569,-2.38125 -0.10569,-5.29166 z m -125.533485,2.9287 c -0.08372,-0.13547 -0.05106,-0.30882 0.07258,-0.38524 0.123641,-0.0764 0.224802,0.0344 0.224802,0.2463 0,0.44613 -0.08343,0.48511 -0.297382,0.13894 z m 62.361924,0.11462 c 0.107879,-0.11908 0.06353,-0.37629 -0.09854,-0.57158 -0.185275,-0.22324 -0.194932,-0.35508 -0.02601,-0.35508 0.41316,0 0.607476,0.75344 0.247587,0.95999 -0.175546,0.10075 -0.23091,0.0858 -0.123034,-0.0333 z m 9.081281,-0.58452 c -0.14358,-0.37708 -0.11319,-0.40747 0.14812,-0.14811 0.18082,0.17948 0.26211,0.39297 0.18065,0.47443 -0.0815,0.0815 -0.22941,-0.0654 -0.32877,-0.32632 z m 16.38903,0.19006 c -0.0927,-0.14998 0.0135,-0.19434 0.24897,-0.10398 0.45837,0.17589 0.54224,0.36553 0.16165,0.36553 -0.13693,0 -0.32171,-0.1177 -0.41062,-0.26155 z m -31.619577,-0.10293 c 0,-0.0549 0.20836,-0.2633 0.463021,-0.46302 0.419645,-0.3291 0.429003,-0.31975 0.0999,0.0999 -0.345644,0.44073 -0.562917,0.58089 -0.562917,0.36312 z m 46.436247,-0.16165 c -0.0927,-0.14998 0.0135,-0.19434 0.24897,-0.10399 0.45837,0.1759 0.54223,0.36554 0.16165,0.36554 -0.13693,0 -0.32171,-0.1177 -0.41062,-0.26155 z m -20.77166,-0.10293 c 0,-0.0549 0.20836,-0.2633 0.46302,-0.46302 0.41964,-0.32911 0.429,-0.31975 0.0999,0.0999 -0.34564,0.44073 -0.56291,0.58088 -0.56291,0.36312 z m 19.43023,-1.02458 -0.77711,-0.8599 0.8599,0.77711 c 0.80154,0.72437 0.98151,0.94268 0.7771,0.94268 -0.0455,0 -0.43249,-0.38695 -0.85989,-0.85989 z M 13.082524,213.9262 c 0.0503,-0.25486 0.159407,-3.05299 0.242459,-6.21807 l 0.151006,-5.75469 h -1.325467 -1.325467 v 2.24896 c 0,1.23693 -0.109927,2.24896 -0.244282,2.24896 -0.134358,0 -0.612998,0.31025 -1.063646,0.68944 -0.655471,0.55155 -0.895366,0.62638 -1.199335,0.3741 -0.208987,-0.17344 -0.512173,-0.23364 -0.673751,-0.13378 -0.64184,0.39668 -1.035415,-0.77683 -1.043906,-3.11257 -0.0083,-2.28926 -0.0158,-2.31511 -0.668213,-2.31511 -0.852011,0 -0.774758,-0.81993 0.144968,-1.53864 1.212101,-0.94718 5.410914,-3.81065 5.078894,-3.46366 -0.181901,0.1901 -0.330729,0.56647 -0.330729,0.83638 0,0.42038 0.180199,0.47919 1.25677,0.41011 l 1.256771,-0.0806 0.0054,-1.37611 0.0054,-1.3761 2.375887,-1.63283 c 1.30674,-0.89805 2.227061,-1.47538 2.04516,-1.28295 -0.248303,0.26267 -0.330729,2.18772 -0.330729,7.72418 0,6.46001 -0.04807,7.33097 -0.387694,7.02469 -0.21323,-0.1923 -0.573032,-0.50559 -0.79956,-0.69622 -0.226528,-0.19062 -0.341355,-0.46069 -0.255169,-0.60013 0.213362,-0.34523 -0.953278,-2.19036 -1.212025,-1.91692 -0.113355,0.1198 -0.455446,0.66792 -0.760201,1.21805 -0.492934,0.88978 -0.554119,1.43585 -0.554119,4.94532 0,2.16979 -0.107958,4.01181 -0.239908,4.09336 -0.131951,0.0815 -0.198755,-0.0603 -0.148456,-0.31512 z m -51.999135,-3.50609 c 0,-2.3682 -0.09842,-3.70417 -0.272887,-3.70417 -0.150088,0 -0.352316,0.20836 -0.449396,0.46302 -0.09708,0.25466 -0.438187,0.74615 -0.758016,1.09219 l -0.581507,0.62918 -0.304249,-0.5685 c -0.167337,-0.31267 -0.235319,-0.68002 -0.151071,-0.81634 0.08425,-0.13632 -0.204534,-0.43283 -0.641737,-0.65891 l -0.794916,-0.41107 -0.07363,3.64094 c -0.0405,2.00252 -0.07363,-1.71686 -0.07363,-8.2653 0,-6.54844 0.03321,-10.40391 0.07379,-8.56773 l 0.07379,3.33852 1.219909,0.16721 c 0.67095,0.092 1.555843,0.16721 1.966429,0.16721 h 0.746521 l 0.07645,-2.31511 0.07645,-2.3151 0.79375,-0.0247 c 0.748892,-0.0233 0.75263,-0.0186 0.06615,0.0829 -0.726889,0.10747 -0.727634,0.10984 -0.757522,2.40592 -0.01646,1.26408 -0.04622,2.83412 -0.06615,3.48896 -0.03481,1.14403 -0.0045,1.19373 0.774492,1.26987 0.979482,0.0957 2.185283,-0.9702 2.418909,-2.13833 0.09394,-0.46972 0.226669,-0.64146 0.346231,-0.44801 0.106638,0.17255 0.982803,0.37705 1.947034,0.45444 0.964231,0.0774 1.753147,0.18871 1.753147,0.24734 0,0.0586 -0.233147,0.56361 -0.518105,1.12218 -0.61929,1.2139 -2.436734,2.86905 -4.116821,3.74919 l -1.218088,0.63811 -0.535144,-0.7276 c -0.294329,-0.40019 -0.651047,-0.72761 -0.792706,-0.72761 -0.165036,0 -0.190235,2.23361 -0.07015,6.21771 0.103078,3.41974 0.109849,6.2177 0.01505,6.2177 -0.0948,0 -0.17237,-1.66687 -0.17237,-3.70416 z m 77.641969,-2.4474 0.0284,-6.01927 h -1.26437 -1.26436 v 2.11667 c 0,1.16416 -0.10933,2.11666 -0.24295,2.11666 -0.5343,0 -1.07997,-0.34062 -1.07997,-0.67415 0,-0.68407 -0.56457,-0.68987 -1.14724,-0.0118 -0.67759,0.78857 -0.8633,0.82986 -1.3852,0.30796 -0.25089,-0.25089 -0.37798,-0.96258 -0.37798,-2.11667 0,-1.67662 -0.0235,-1.7387 -0.65918,-1.7387 h -0.65919 l 0.65919,-1.75129 c 0.55978,-1.4872 0.65918,-2.20047 0.65918,-4.7299 v -2.9786 l 2.11667,0.80802 2.11667,0.80801 v 2.0843 2.08429 l 1.25677,-0.0806 1.25677,-0.0806 -0.0226,-2.77812 c -0.0124,-1.52797 0.023,-2.1617 0.0788,-1.40828 l 0.10133,1.36985 1.32331,0.28379 c 0.72782,0.1561 1.61511,0.2838 1.97175,0.2838 h 0.64843 v 5.175 c 0,3.38261 -0.0916,5.11835 -0.26458,5.01146 -0.14552,-0.0899 -0.26458,-0.33509 -0.26458,-0.54478 0,-0.35566 -0.88985,-0.53189 -2.16687,-0.42912 -0.24589,0.0198 -0.52181,-0.19948 -0.61314,-0.48725 -0.44126,-1.39028 -0.65598,-0.10408 -0.74084,4.43772 -0.0796,4.25831 -0.0887,4.10842 -0.0643,-1.05834 z m 6.60535,1.38906 c 0,-2.69213 0.0393,-3.79346 0.0873,-2.44739 0.048,1.34607 0.048,3.54872 0,4.89479 -0.048,1.34607 -0.0873,0.24474 -0.0873,-2.4474 z m 29.62357,1.85209 c 0,-1.67349 0.043,-2.3581 0.0955,-1.52136 0.0525,0.83675 0.0525,2.20597 0,3.04271 -0.0525,0.83675 -0.0955,0.15214 -0.0955,-1.52135 z m -52.24798,-8.26823 0.10727,-10.78177 H 21.61421 c -0.743321,0 -1.324602,0.1509 -1.528739,0.39687 -0.489421,0.58972 -0.79375,0.48229 -0.79375,-0.2802 0,-0.45639 -0.107794,-0.62138 -0.330729,-0.5062 -0.181901,0.094 -0.03307,-0.0769 0.330729,-0.37965 0.363802,-0.30278 1.107943,-0.67489 1.653646,-0.8269 0.545703,-0.15202 0.994011,-0.42064 0.996241,-0.59693 0.003,-0.20014 0.10038,-0.17147 0.26053,0.0763 0.22798,0.35278 0.25738,0.35278 0.26458,0 0.005,-0.23887 0.0855,-0.28924 0.20249,-0.12651 0.10691,0.1487 1.62314,0.62461 3.36939,1.05757 1.74625,0.43296 3.31621,0.82457 3.48879,0.87025 0.18066,0.0478 0.36255,-0.28862 0.42871,-0.79298 0.0632,-0.48182 0.0745,-0.29434 0.0251,0.41661 -0.10788,1.55372 -0.22069,1.70331 -0.853,1.13108 -0.267,-0.24164 -0.92066,-0.43935 -1.45257,-0.43935 h -0.9671 l -0.0704,7.20989 -0.0704,7.2099 -0.62654,-0.62654 c -0.69265,-0.69266 -0.6977,-0.68934 -1.62821,1.07032 -0.28297,0.53512 -0.75066,1.04791 -1.0393,1.13952 -0.47122,0.14956 -0.53246,0.44196 -0.59975,2.86351 -0.0412,1.48331 -0.0267,-2.15486 0.0323,-8.08483 z m 42.35834,10.81416 c 0,-0.0549 0.20836,-0.2633 0.46302,-0.46302 0.41964,-0.3291 0.429,-0.31974 0.0999,0.0999 -0.34565,0.44073 -0.56292,0.58089 -0.56292,0.36312 z m -67.893522,-4.00114 c 5.29e-4,-2.03729 0.04194,-2.83575 0.09229,-1.77436 0.05035,1.06139 0.05001,2.72826 -7.94e-4,3.70416 -0.05072,0.9759 -0.09191,0.10749 -0.0915,-1.9298 z m 56.293632,2.51354 c 0,-0.3638 0.06,-0.51263 0.13345,-0.33073 0.0734,0.1819 0.0734,0.47956 0,0.66146 -0.0734,0.1819 -0.13345,0.0331 -0.13345,-0.33073 z m 2.1963,-0.28219 c -0.0959,-0.1552 -0.11765,-0.33893 -0.0483,-0.40828 0.0694,-0.0694 0.1966,0.0576 0.28277,0.28218 0.17891,0.46623 0.0264,0.54824 -0.23447,0.1261 z m -77.379743,-0.64385 c 0.341775,-0.3638 0.680939,-0.66146 0.7537,-0.66146 0.07276,0 -0.147342,0.29766 -0.489116,0.66146 -0.341774,0.3638 -0.680939,0.66146 -0.7537,0.66146 -0.07276,0 0.147342,-0.29766 0.489116,-0.66146 z m 71.172913,-1.61124 c 0,-2.03332 -0.0627,-2.325 -0.59531,-2.76932 -0.32742,-0.27314 -0.72396,-0.50059 -0.88119,-0.50543 -0.15723,-0.005 -0.67187,-0.54628 -1.14363,-1.20321 -0.47177,-0.65692 -0.9682,-1.12614 -1.10319,-1.04271 -0.14644,0.0905 -0.24636,-1.37524 -0.24773,-3.63425 -10e-4,-2.08226 -0.0453,-4.38124 -0.098,-5.10884 -0.0526,-0.7276 -0.0439,-0.92714 0.0194,-0.44341 l 0.11512,0.8795 2.03338,-0.0857 2.03337,-0.0858 0.0451,8.13594 c 0.0248,4.47477 -0.005,8.13594 -0.0661,8.13594 -0.0612,0 -0.11123,-1.02271 -0.11123,-2.2727 z m 16.93552,2.00811 c -0.0107,-0.21828 -0.54775,-0.84847 -1.19334,-1.40044 l -1.17381,-1.00356 -0.57718,0.66381 c -0.93204,1.07194 -1.06429,0.51306 -0.2055,-0.86844 2.62112,-4.2165 2.2935,-12.17041 -0.63363,-15.38303 -0.46406,-0.50932 -0.61902,-0.72566 -0.34435,-0.48076 0.45326,0.40416 0.59056,0.40881 1.48648,0.0503 0.55058,-0.2203 1.55408,-0.35872 2.26923,-0.313 1.26895,0.0811 1.287,0.0951 1.75483,1.35877 1.32508,3.5792 1.52105,8.62547 0.49132,12.65166 -0.54084,2.1147 -1.84114,5.39287 -1.87405,4.72465 z m -77.624705,-0.67168 c -0.255317,-0.66535 -0.179998,-0.83703 0.131903,-0.30066 0.154435,0.26558 0.225055,0.5386 0.156932,0.60672 -0.06812,0.0681 -0.198098,-0.0696 -0.288835,-0.30606 z m 64.359605,0.0764 c 0.41612,-0.5306 0.8275,-0.60733 0.8275,-0.15434 0,0.16977 -0.0783,0.23034 -0.17409,0.13459 -0.0958,-0.0958 -0.36365,-0.0263 -0.59532,0.15434 -0.37269,0.29059 -0.37938,0.27508 -0.0581,-0.13459 z m 6.4909,-0.79375 -0.50403,-0.59531 0.59532,0.50403 c 0.55944,0.47366 0.71576,0.68659 0.50402,0.68659 -0.0502,0 -0.31809,-0.26789 -0.59531,-0.59531 z m -78.362324,-6.51754 0.0708,-6.20575 2.778125,-0.53571 c 1.527968,-0.29463 2.827385,-0.66042 2.887593,-0.81285 0.06021,-0.15243 0.259509,0.13853 0.442892,0.64657 0.306117,0.84807 0.33507,0.86713 0.353552,0.23264 0.01818,-0.62421 0.16519,-0.72021 1.519465,-0.99219 0.824634,-0.16561 1.777134,-0.30111 2.116666,-0.30111 h 0.617331 v 4.8624 c 0,4.02604 -0.06912,4.91976 -0.401838,5.19589 -0.327967,0.27219 -0.492194,0.25173 -0.89335,-0.11132 -0.461264,-0.41743 -0.504809,-0.41561 -0.70752,0.0296 -0.118805,0.26095 -0.234013,0.59351 -0.256018,0.73903 -0.02201,0.14552 -0.196864,0.62177 -0.388575,1.05833 -0.191712,0.43657 -0.333145,0.87163 -0.314299,0.96681 0.01884,0.0952 -0.138549,0.31649 -0.349766,0.49178 -0.313015,0.25978 -0.427019,0.20332 -0.6165,-0.30535 -0.127857,-0.34324 -0.754909,-2.02919 -1.393447,-3.74656 l -1.160978,-3.12249 -0.07341,3.7178 c -0.05785,2.9298 -0.14999,3.7178 -0.434713,3.7178 -0.198716,0 -0.427731,0.17312 -0.508921,0.3847 -0.109498,0.28534 -0.562142,0.3732 -1.752756,0.3402 l -1.605135,-0.0445 z m 73.157694,4.65774 c -1.12428,-4.05588 -1.39188,-8.00755 -0.74852,-11.05333 0.35762,-1.69307 0.3845,-1.73183 1.12527,-1.62311 0.68035,0.0999 2.3797,-0.20631 3.47235,-0.6256 0.33912,-0.13014 0.32367,0.0129 -0.0923,0.85512 -0.69045,1.39777 -1.12936,4.84598 -0.92016,7.22912 0.19041,2.16907 0.61728,4.19526 0.9829,4.66545 0.14794,0.19025 0.0795,0.3588 -0.18725,0.46115 -0.23122,0.0887 -0.34475,0.28372 -0.25229,0.43332 0.19738,0.31937 -1.62908,1.14696 -2.11758,0.9595 -0.18356,-0.0704 -0.44004,-0.0218 -0.56994,0.10812 -0.13854,0.13854 -0.42484,-0.44435 -0.69244,-1.40974 z M 0.440654,207.77488 c -0.399913,-0.24339 -0.64796,-0.52169 -0.551217,-0.61843 0.09674,-0.0967 0.05717,-0.1759 -0.08793,-0.1759 -0.145105,0 -0.648599,-0.53578 -1.118873,-1.19062 -0.470273,-0.65484 -1.026236,-1.19063 -1.235477,-1.19063 -0.209237,0 -0.379605,-0.0893 -0.378592,-0.19843 0.0011,-0.10914 0.507026,-0.22175 1.124479,-0.25022 0.61745,-0.0285 1.598888,-0.22138 2.180971,-0.42865 l 1.058333,-0.37687 -0.07302,1.75157 c -0.139485,3.34608 -0.08452,3.18586 -0.918674,2.67818 z m -28.64164,-0.4988 c -0.543207,-0.11705 -0.802264,-0.33683 -0.820722,-0.6963 -0.01483,-0.2889 -0.0446,-1.448 -0.06615,-2.57579 -0.03556,-1.86107 -0.08806,-2.05052 -0.56834,-2.05052 -0.669325,0 -0.675885,-0.53772 -0.02744,-2.24896 l 0.501301,-1.32291 3.890114,-0.22727 c 2.167566,-0.12663 4.099014,-0.12663 4.361884,0 0.437247,0.21063 0.411142,0.35312 -0.356734,1.94706 l -0.828505,1.71979 -1.389062,0.08 -1.389063,0.08 -0.03135,0.97836 c -0.01724,0.53809 -0.01719,1.10468 1.14e-4,1.25907 0.0173,0.1544 -0.211352,0.54135 -0.508126,0.8599 -0.296772,0.31855 -0.460839,0.57918 -0.364591,0.57918 0.370661,0 -0.562614,0.86146 -1.192876,1.10109 -0.537386,0.20431 -0.589699,0.2988 -0.275457,0.49755 0.428312,0.27089 0.248012,0.27471 -0.935007,0.0198 z m 24.078956,-3.4675 c -0.09269,-0.14998 0.01352,-0.19433 0.248967,-0.10398 0.45837,0.17589 0.542235,0.36554 0.16165,0.36554 -0.136932,0 -0.321712,-0.1177 -0.410617,-0.26156 z m 0.827966,-0.73468 c 0.393581,-0.25445 0.607195,-3.71936 0.239027,-3.87714 -0.151315,-0.0649 0.08681,-0.0566 0.529161,0.0184 0.451477,0.0765 1.459077,-0.0847 2.297004,-0.3676 l 1.492721,-0.50394 0.08425,2.19021 c 0.07953,2.06744 0.05018,2.20569 -0.523513,2.46636 -0.679823,0.30891 -4.590703,0.37886 -4.118649,0.0737 z m 7.769119,-2.27866 c 0,-0.0549 0.208359,-0.2633 0.463021,-0.46302 0.419645,-0.32911 0.429003,-0.31975 0.0999,0.0999 -0.345644,0.44073 -0.562917,0.58088 -0.562917,0.36312 z m 1.527855,-1.32485 c 0.463645,-0.60102 0.588811,-1.1128 0.588811,-2.40751 v -1.64423 l 2.182813,-1.16816 2.182812,-1.16815 -0.09122,1.55625 c -0.07297,1.24492 -0.02003,1.51581 0.264583,1.35405 0.800778,-0.45512 -0.258762,0.3463 -1.760868,1.3319 -0.873125,0.57289 -2.120357,1.46181 -2.771624,1.97538 -1.127024,0.88873 -1.155732,0.89695 -0.595312,0.17047 z m -10.735355,-1.00942 c -0.483452,-0.48345 -0.381474,-0.74413 0.277812,-0.71014 0.469474,0.0242 0.49447,0.0568 0.118243,0.1544 -0.378722,0.0982 -0.412951,0.20096 -0.166042,0.49847 0.378555,0.45613 0.210656,0.49794 -0.230013,0.0573 z m 2.166789,-0.41415 c -0.187002,-0.12371 -0.289769,-1.25258 -0.282654,-3.10481 0.0061,-1.60073 0.05563,-2.27579 0.109961,-1.50014 l 0.09878,1.41027 1.969813,-0.18459 1.969812,-0.18458 v 1.5767 1.57671 l -1.022885,0.30646 c -1.157763,0.34687 -2.406613,0.39255 -2.842826,0.10398 z m 6.246961,-0.95983 c 0,-0.0572 0.184777,-0.17489 0.410617,-0.26156 0.235458,-0.0904 0.341662,-0.046 0.248968,0.10399 -0.155379,0.25141 -0.659585,0.37186 -0.659585,0.15757 z m -34.883223,-1.7481 c 0,-0.3638 0.06005,-0.51263 0.133452,-0.33073 0.0734,0.1819 0.0734,0.47956 0,0.66146 -0.0734,0.1819 -0.133452,0.0331 -0.133452,-0.33073 z m 74.083326,-0.79375 c 0,-0.3638 0.0601,-0.51263 0.13346,-0.33073 0.0734,0.1819 0.0734,0.47956 0,0.66146 -0.0734,0.1819 -0.13346,0.0331 -0.13346,-0.33073 z m 11.34342,0.39687 c 0,-0.14552 0.11541,-0.44317 0.25648,-0.66146 0.14106,-0.21828 0.25647,-0.27781 0.25647,-0.13229 0,0.14552 -0.11541,0.44318 -0.25647,0.66146 -0.14107,0.21828 -0.25648,0.27781 -0.25648,0.13229 z m -47.70088,-0.77797 c 0.08572,-0.44841 0.345035,-0.65431 0.952672,-0.75646 0.45919,-0.0772 1.073018,-0.21972 1.36406,-0.31674 l 0.529166,-0.1764 -0.529166,0.43919 c -0.291042,0.24155 -0.957869,0.66134 -1.481839,0.93285 l -0.952672,0.49368 z m 6.94694,-0.77401 c 0,-0.70977 -0.132141,-1.2266 -0.330729,-1.29356 -0.181901,-0.0613 0.443177,-0.19943 1.389062,-0.30687 0.945886,-0.10745 2.076979,-0.2646 2.513542,-0.34924 0.861732,-0.16706 0.955019,-0.25347 -2.580865,2.39064 l -0.99101,0.74107 z m 36.02568,-1.27667 c -0.0233,-1.26472 0.0469,-2.35502 0.15609,-2.42289 0.10914,-0.0679 0.16528,0.60972 0.12476,1.50574 -0.13196,2.91783 -0.23766,3.263 -0.28085,0.91715 z m 10.01182,1.50574 c 0.34177,-0.36381 0.68094,-0.66146 0.7537,-0.66146 0.0728,0 -0.14734,0.29765 -0.48912,0.66146 -0.34177,0.3638 -0.68094,0.66145 -0.7537,0.66145 -0.0728,0 0.14734,-0.29765 0.48912,-0.66145 z m -15.41198,0.22164 c 0.1819,-0.0734 0.47956,-0.0734 0.66146,0 0.1819,0.0734 0.0331,0.13346 -0.33073,0.13346 -0.3638,0 -0.51263,-0.0601 -0.33073,-0.13346 z m -65.584268,-1.08157 c -0.335893,-0.4283 -0.32344,-0.43391 0.16604,-0.0749 0.291042,0.21349 0.578776,0.42185 0.63941,0.46302 0.06063,0.0412 -0.01408,0.0749 -0.166041,0.0749 -0.151956,0 -0.43969,-0.20836 -0.639409,-0.46302 z m 15.171214,-1.98437 0.07608,-2.4474 5.272688,-0.0719 c 2.899976,-0.0395 5.364808,0.02 5.477401,0.1323 0.112596,0.1123 -2.23892,0.16968 -5.225589,0.12751 l -5.430306,-0.0767 0.0852,2.39239 c 0.04686,1.31581 -0.0086,2.39211 -0.123174,2.39178 -0.114602,-2.6e-4 -0.174133,-1.10194 -0.132292,-2.448 z m 43.815004,1.4729 c 0.191,-0.0764 0.4192,-0.067 0.50712,0.0209 0.0879,0.0879 -0.0683,0.15045 -0.34726,0.13896 -0.30823,-0.0127 -0.37092,-0.0754 -0.15986,-0.15985 z m 5.37197,-1.06041 c -0.0169,-0.7554 0.0608,-1.42999 0.17261,-1.4991 0.11183,-0.0691 0.16506,0.37035 0.1183,0.97657 -0.13732,1.78048 -0.25796,1.99716 -0.29091,0.52253 z m 2.34633,-0.13549 c -0.0704,-0.82991 -0.0316,-1.41207 0.0864,-1.29368 0.11794,0.11839 0.17557,0.7974 0.12807,1.50893 l -0.0864,1.29368 z m -6.96496,0.64413 c 0.16877,-0.10739 0.35929,-0.55205 0.42338,-0.98814 0.10568,-0.7191 0.12021,-0.70055 0.15617,0.1993 0.0314,0.78501 -0.057,0.99134 -0.42338,0.98813 -0.30059,-0.003 -0.35537,-0.0725 -0.15617,-0.19929 z m 27.30835,-1.05343 c -0.3291,-0.41964 -0.31974,-0.429 0.0999,-0.0999 0.44073,0.34564 0.58089,0.56291 0.36313,0.56291 -0.0549,0 -0.2633,-0.20835 -0.46303,-0.46302 z m -46.553836,-0.79399 c 0.126428,-0.91312 0.144872,-0.93157 0.232111,-0.23211 0.05212,0.41791 -0.0097,0.86429 -0.137345,0.99195 -0.133091,0.13309 -0.173519,-0.19105 -0.09477,-0.75984 z m 37.988636,0.46326 c 0.26339,-0.29104 0.53842,-0.52916 0.61118,-0.52916 0.0728,0 -0.0832,0.23812 -0.3466,0.52916 -0.26339,0.29105 -0.53842,0.52917 -0.61118,0.52917 -0.0728,0 0.0832,-0.23812 0.3466,-0.52917 z m 7.53559,-0.66751 c -0.2796,-0.33691 -0.26323,-0.37562 0.0999,-0.23628 0.23886,0.0917 0.4343,0.27298 0.4343,0.40294 0,0.34024 -0.15316,0.29246 -0.5342,-0.16666 z m 17.62516,-0.47316 0.45363,-0.74381 -3.21655,0.0823 c -1.7691,0.0453 -3.21632,-0.007 -3.21604,-0.11609 2.6e-4,-0.10914 1.48878,-0.19844 3.30779,-0.19844 1.81901,0 3.30729,0.10587 3.30729,0.23527 0,0.1294 -0.24519,0.51635 -0.54487,0.8599 l -0.54487,0.62462 z M -29.954527,189.055 c -0.329107,-0.41964 -0.319749,-0.429 0.09989,-0.0999 0.254662,0.19972 0.463021,0.40808 0.463021,0.46302 0,0.21776 -0.217272,0.0776 -0.562916,-0.36313 z m 59.850465,0.0107 c -0.0195,-0.54662 -0.16273,-0.5904 -2.2037,-0.67374 l -2.18281,-0.0891 2.19112,-0.0539 c 2.23664,-0.055 2.71463,0.16078 2.35264,1.0619 -0.075,0.1867 -0.14576,0.0764 -0.15725,-0.24516 z m -14.0438,-0.0768 c -0.238467,-0.15411 -0.2711,-0.2581 -0.08176,-0.26053 0.173313,-0.002 0.3887,0.11501 0.478637,0.26053 0.203015,0.32849 0.111421,0.32849 -0.396875,0 z m 28.44155,-0.26645 c -0.27926,-0.45186 0.45349,-0.54948 3.45775,-0.46065 l 2.89341,0.0855 -3.12447,0.0562 c -2.00219,0.036 -3.06573,0.15123 -2.96095,0.32077 0.0899,0.14553 0.10399,0.26459 0.0312,0.26459 -0.0728,0 -0.2064,-0.11991 -0.29697,-0.26645 z m 25.44525,0.0901 c -0.097,-0.097 -0.17638,-0.27561 -0.17638,-0.39688 0,-0.27404 3.89102,-0.29516 4.06105,-0.022 0.0679,0.10914 -0.77159,0.15881 -1.86563,0.11037 -1.37961,-0.0611 -1.93491,-2.6e-4 -1.8121,0.19844 0.19613,0.31734 0.0683,0.38536 -0.20694,0.11012 z m -38.80617,-0.41892 c 2.6e-4,-0.10914 1.45913,-0.17764 3.24177,-0.15222 3.28973,0.0469 2.8983,0.15019 -1.05896,0.27937 -1.20089,0.0392 -2.18315,-0.018 -2.18281,-0.12715 z m 6.61458,0 c 2.7e-4,-0.10914 1.45914,-0.17764 3.24177,-0.15222 3.28974,0.0469 2.89831,0.15019 -1.05896,0.27937 -1.20088,0.0392 -2.18315,-0.018 -2.18281,-0.12715 z m -65.417605,-0.13099 c 1.346068,-0.048 3.548724,-0.048 4.894792,0 1.346067,0.048 0.244739,0.0873 -2.447396,0.0873 -2.692136,0 -3.793464,-0.0393 -2.447396,-0.0873 z m 8.863541,0.004 c 0.545704,-0.0571 1.438672,-0.0571 1.984375,0 0.545704,0.0571 0.09922,0.10379 -0.992187,0.10379 -1.091406,0 -1.537891,-0.0467 -0.992188,-0.10379 z m 7.276042,-0.003 c 0.909505,-0.0517 2.397786,-0.0517 3.307292,0 0.909505,0.0517 0.165364,0.0939 -1.653646,0.0939 -1.819011,0 -2.563151,-0.0423 -1.653646,-0.0939 z m 22.761159,0.002 c 0.622311,-0.0559 1.574811,-0.0551 2.116667,0.002 0.541856,0.0569 0.03269,0.10258 -1.131472,0.10162 -1.164167,-0.001 -1.607506,-0.0475 -0.985195,-0.10337 z m 10.113319,-0.0244 c 0,-0.27591 1.151224,-1.36904 1.441794,-1.36904 0.11939,0 -0.11385,0.2603 -0.5183,0.57844 -0.679262,0.53431 -0.697124,0.59345 -0.23412,0.77516 0.45198,0.17737 0.44273,0.19854 -0.0941,0.2153 -0.327423,0.0102 -0.595314,-0.0797 -0.595314,-0.19986 z m 0.264584,-1.82133 c 0.218281,-0.0803 0.635,-0.33875 0.92604,-0.57442 0.52466,-0.42485 0.52488,-0.42343 0.0251,0.16682 -0.27722,0.32742 -0.693937,0.58591 -0.926045,0.57442 -0.358188,-0.0177 -0.36199,-0.043 -0.02513,-0.16682 z m 28.31042,-0.0769 c -0.21829,-0.14107 -0.27782,-0.25648 -0.1323,-0.25648 0.14552,0 0.44318,0.11541 0.66146,0.25648 0.21828,0.14106 0.27781,0.25647 0.13229,0.25647 -0.14552,0 -0.44317,-0.11541 -0.66145,-0.25647 z m 0.79375,-0.52917 c -0.23847,-0.15411 -0.2711,-0.2581 -0.0818,-0.26053 0.17332,-0.002 0.3887,0.11501 0.47864,0.26053 0.20302,0.32849 0.11142,0.32849 -0.39687,0 z m -55.471201,-1.46662 c -0.08617,-0.22456 -0.09756,-0.46741 -0.02529,-0.53966 0.07225,-0.0723 0.194882,0.11147 0.2725,0.40829 0.164875,0.63048 -0.01831,0.72783 -0.2472,0.13137 z m 55.471201,-5.31435 c 0.12391,-5.11314 0.16584,-5.47751 0.66226,-5.75503 0.48062,-0.2687 0.48678,-0.2625 0.0661,0.0667 -0.41499,0.32478 -0.46382,0.93062 -0.46382,5.75468 0,2.96543 -0.0893,5.39185 -0.19844,5.39204 -0.10914,1.8e-4 -0.1389,-2.45609 -0.0661,-5.4584 z m 23.75516,-1.48265 c 0.0412,-3.8176 0.16028,-7.02657 0.26458,-7.13106 0.1043,-0.10449 0.15613,3.01891 0.11518,6.94089 -0.0409,3.92198 -0.16001,7.13096 -0.26458,7.13106 -0.10458,1e-4 -0.15641,-3.1233 -0.11518,-6.94089 z m -78.767608,6.2572 c 0.0127,-0.30823 0.07539,-0.37092 0.159851,-0.15986 0.07643,0.191 0.06703,0.4192 -0.02088,0.50712 -0.08792,0.0879 -0.150453,-0.0683 -0.138965,-0.34726 z m 22.754167,0 c 0.0127,-0.30823 0.07539,-0.37092 0.15985,-0.15986 0.07643,0.191 0.06703,0.4192 -0.02087,0.50712 -0.08792,0.0879 -0.150453,-0.0683 -0.138965,-0.34726 z m 27.628071,0.15434 c -0.34892,-0.14994 -0.39398,-0.23235 -0.13229,-0.24194 0.21828,-0.008 0.57546,0.10087 0.79375,0.24194 0.48365,0.31255 0.0659,0.31255 -0.66146,0 z m -0.92604,-0.58832 c 0,-0.11299 0.68461,-0.19162 1.52135,-0.17474 1.61478,0.0326 1.45654,0.14941 -0.39688,0.29303 -0.61846,0.0479 -1.12447,-0.005 -1.12447,-0.11829 z m -79.160028,-0.12157 c 0.190996,-0.0764 0.419199,-0.067 0.507118,0.0209 0.08792,0.0879 -0.06835,0.15046 -0.347266,0.13897 -0.308224,-0.0127 -0.370919,-0.0754 -0.159852,-0.15985 z m 0.929258,0.007 c 0.09575,-0.0958 0.0263,-0.36364 -0.15434,-0.59531 -0.290128,-0.37209 -0.27477,-0.37915 0.131674,-0.0605 0.41392,0.3245 0.419612,0.82991 0.0093,0.82991 -0.08843,0 -0.08243,-0.0783 0.01332,-0.17409 z m 22.883241,-0.007 c 0.190995,-0.0764 0.419198,-0.067 0.507119,0.0209 0.08792,0.0879 -0.06835,0.15046 -0.347266,0.13897 -0.308226,-0.0127 -0.370919,-0.0754 -0.159853,-0.15985 z m 5.097581,-0.23818 c 0.0127,-0.30823 0.07539,-0.37092 0.159851,-0.15986 0.07643,0.191 0.06703,0.4192 -0.02087,0.50712 -0.08792,0.0879 -0.150453,-0.0684 -0.138965,-0.34726 z m 1.710204,0.17262 c -0.08373,-0.13547 -0.05106,-0.30882 0.07258,-0.38524 0.123643,-0.0764 0.224804,0.0344 0.224804,0.2463 0,0.44613 -0.08343,0.48511 -0.297381,0.13894 z m 9.620964,-0.21672 c -0.194921,-0.25466 -0.250219,-0.37476 -0.122886,-0.26688 0.127333,0.10788 0.421066,0.0483 0.652735,-0.13229 0.367165,-0.28629 0.377359,-0.27232 0.07945,0.10885 -0.279307,0.35737 -0.279307,0.46236 0,0.57443 0.202941,0.0814 0.220586,0.14562 0.04344,0.15802 -0.164082,0.0115 -0.457814,-0.18747 -0.652735,-0.44213 z m 1.810964,0.28779 c 0.181901,-0.0734 0.479557,-0.0734 0.661458,0 0.181901,0.0734 0.03307,0.13345 -0.330729,0.13345 -0.363802,0 -0.51263,-0.06 -0.330729,-0.13345 z m 33.634476,-0.28779 c -0.31581,-0.4027 -0.31142,-0.42364 0.0337,-0.16077 0.21828,0.16625 0.635,0.3608 0.92604,0.43233 0.50261,0.12355 0.50092,0.13161 -0.0337,0.16077 -0.3096,0.0169 -0.72632,-0.17767 -0.92604,-0.43233 z m 9.82334,0.21405 c 0,-0.13693 0.13745,-0.33392 0.30546,-0.43775 0.19791,-0.12232 0.23326,-0.072 0.1004,0.14301 -0.15744,0.25474 0.1404,0.31032 1.2824,0.23932 0.8181,-0.0509 1.48729,-0.003 1.4871,0.10595 -2e-4,0.10914 -0.71474,0.19844 -1.58786,0.19844 -0.87313,0 -1.5875,-0.11204 -1.5875,-0.24897 z m 6.42412,0.0542 c 0.69562,-0.0547 1.76718,-0.054 2.38125,0.002 0.61408,0.0555 0.0449,0.10023 -1.26475,0.0994 -1.30969,-7.9e-4 -1.81211,-0.0462 -1.1165,-0.10088 z m 3.80873,0.0207 c -0.0958,-0.0958 -0.0517,-0.32153 0.0978,-0.50172 0.17381,-0.20943 0.24457,-2.524 0.19614,-6.41554 -0.0417,-3.34834 0.0135,-6.03257 0.12267,-5.96495 0.10915,0.0676 0.19844,2.84733 0.19844,6.17714 0,4.5528 -0.082,6.10727 -0.33073,6.26824 -0.19838,0.1284 0.30452,0.27566 1.25677,0.36801 l 1.5875,0.15396 -1.47725,0.0445 c -0.8125,0.0245 -1.5556,-0.0339 -1.65135,-0.12961 z m 4.7602,-0.002 c -0.097,-0.097 -0.17457,-0.30537 -0.17234,-0.46302 0.002,-0.17753 0.0816,-0.16465 0.20771,0.0338 0.13049,0.20533 1.15087,0.35178 2.84022,0.40765 l 2.63656,0.0872 -2.66788,0.0554 c -1.46733,0.0305 -2.74726,-0.024 -2.84427,-0.12101 z m 12.33021,-0.007 c 0.25743,-0.0671 0.61462,-0.0627 0.79375,0.01 0.17913,0.0725 -0.0315,0.12736 -0.46806,0.12197 -0.43656,-0.005 -0.58312,-0.0647 -0.32569,-0.13178 z m -117.412014,-0.34307 c -0.09269,-0.14998 0.01351,-0.19434 0.248968,-0.10398 0.458369,0.17589 0.542234,0.36554 0.161649,0.36554 -0.136933,0 -0.321711,-0.1177 -0.410617,-0.26156 z m 17.231083,0.0537 c -0.07066,-0.11434 0.09216,-0.20789 0.361835,-0.20789 0.269674,0 0.432499,0.0935 0.361835,0.20789 -0.07066,0.11434 -0.233491,0.20789 -0.361835,0.20789 -0.128344,0 -0.29117,-0.0935 -0.361835,-0.20789 z m 101.697251,0.10799 c 0,-0.0549 0.20836,-0.2633 0.46302,-0.46302 0.41964,-0.32911 0.429,-0.31975 0.0999,0.0999 -0.34565,0.44073 -0.56292,0.58089 -0.56292,0.36313 z m -111.017846,-0.76 -0.504028,-0.59531 0.595312,0.50403 c 0.559447,0.47366 0.715762,0.68659 0.504029,0.68659 -0.05021,0 -0.318098,-0.26789 -0.595313,-0.59531 z m 5.890069,0.41892 c -0.09701,-0.097 -0.176389,-1.24795 -0.176389,-2.55764 0,-1.30968 0.07496,-2.30629 0.166572,-2.21467 0.124384,0.12438 0.327371,4.94776 0.208255,4.94856 -0.01213,8e-5 -0.101424,-0.0792 -0.198438,-0.17625 z m 70.201717,-3.47396 0.13123,-3.62569 0.0754,3.41812 c 0.0415,1.87996 -0.0176,3.51152 -0.13123,3.62568 -0.11367,0.11417 -0.14762,-1.42399 -0.0754,-3.41811 z m -88.690213,-2.02951 c 0.07073,-4.98746 0.0411,-5.40021 -0.396875,-5.52836 -0.385292,-0.11272 -0.374904,-0.12836 0.05586,-0.0841 0.506946,0.0521 0.532185,0.27565 0.601063,5.32364 0.03954,2.89809 -0.01999,5.36138 -0.132292,5.47397 -0.112303,0.1126 -0.169793,-2.22073 -0.127754,-5.18516 z m 87.653823,4.99636 c 0.0127,-0.30823 0.0754,-0.37092 0.15986,-0.15986 0.0764,0.191 0.067,0.4192 -0.0209,0.50712 -0.0879,0.0879 -0.15045,-0.0684 -0.13896,-0.34726 z m 3.20999,-2.62379 c -0.0219,-1.74625 0.0496,-2.99641 0.15885,-2.77812 0.10925,0.21828 0.12715,1.64703 0.0398,3.175 l -0.15885,2.77812 z m 16.63376,2.62379 c 0.0127,-0.30823 0.0754,-0.37092 0.15985,-0.15986 0.0764,0.191 0.067,0.4192 -0.0209,0.50712 -0.0879,0.0879 -0.15045,-0.0684 -0.13897,-0.34726 z m 7.20215,-0.904 c 0,-0.80036 0.0496,-1.12778 0.11022,-0.7276 0.0606,0.40018 0.0606,1.05502 0,1.45521 -0.0606,0.40018 -0.11022,0.0728 -0.11022,-0.72761 z m -98.404225,-1.85208 c 0,-1.67349 0.04296,-2.3581 0.09547,-1.52136 0.05251,0.83675 0.05251,2.20597 0,3.04271 -0.05251,0.83675 -0.09547,0.15214 -0.09547,-1.52135 z m 6.570718,0.0661 c -0.03342,-1.77052 -0.163396,-2.97656 -0.320776,-2.97656 -0.342435,0 -0.344927,-0.97745 -0.003,-1.18875 0.150439,-0.093 0.194065,0.0142 0.102691,0.25234 -0.08737,0.22769 -0.02232,0.5785 0.144557,0.77958 0.199658,0.24058 0.274236,1.3478 0.218084,3.23778 l -0.08533,2.87218 z m 12.227753,-2.97656 c 0,-3.27422 0.03798,-4.61367 0.0844,-2.97656 0.04642,1.63711 0.04642,4.31602 0,5.95312 -0.04642,1.63711 -0.0844,0.29766 -0.0844,-2.97656 z m 5.136896,4.37386 c -0.04985,-0.79583 -0.0132,-1.71857 0.08143,-2.05052 0.09464,-0.33195 0.183933,0.31919 0.198438,1.44697 0.03036,2.36033 -0.146008,2.74067 -0.279868,0.60355 z m 2.212181,-4.42439 c -0.02962,-3.30201 0.03544,-6.05909 0.144581,-6.12685 0.109141,-0.0677 0.167699,1.68139 0.13013,3.88699 -0.12773,7.49864 -0.220736,8.25697 -0.274711,2.23986 z m 1.325253,3.02709 c -0.03342,-1.77052 -0.163396,-2.97656 -0.320776,-2.97656 -0.145521,0 -0.264583,-0.14457 -0.264583,-0.32128 0,-0.21507 0.134316,-0.18696 0.406305,0.085 0.327342,0.32734 0.389683,0.96827 0.320778,3.29784 l -0.08553,2.89154 z m 2.104951,0.0156 c -0.02447,-1.62852 0.04482,-3.01653 0.153961,-3.08448 0.10914,-0.0679 0.166367,0.84777 0.127172,2.03491 -0.12246,3.70892 -0.234882,4.12864 -0.281133,1.04957 z M 5.6465,176.55342 c 0,-3.27422 0.03798,-4.61367 0.0844,-2.97656 0.04642,1.63711 0.04642,4.31602 0,5.95312 -0.04642,1.63711 -0.0844,0.29766 -0.0844,-2.97656 z m 36.351988,3.4413 c 0.0786,-2.20331 0.049,-2.36911 -0.39687,-2.2246 -0.40145,0.13011 -0.41561,0.10854 -0.0849,-0.12935 0.21828,-0.15703 0.48617,-0.28732 0.59531,-0.28955 0.10915,-0.002 0.19844,1.12705 0.19844,2.50949 0,1.38245 -0.0893,2.51382 -0.19844,2.51415 -0.10914,2.7e-4 -0.16023,-1.07073 -0.11354,-2.38014 z m 9.93704,-0.53088 c 0,-1.67349 0.043,-2.3581 0.0955,-1.52136 0.0525,0.83675 0.0525,2.20597 0,3.04271 -0.0525,0.83675 -0.0955,0.15214 -0.0955,-1.52135 z m 17.09744,-3.09607 c -0.0725,-3.37633 -0.0402,-6.04695 0.0718,-5.93471 0.112,0.11224 0.17134,2.87469 0.13187,6.13878 l -0.0718,5.93471 z m -43.25896,5.21274 c 0.26339,-0.29105 0.53843,-0.52917 0.61119,-0.52917 0.0728,0 -0.0832,0.23812 -0.3466,0.52917 -0.26339,0.29104 -0.53842,0.52916 -0.61118,0.52916 -0.0728,0 0.0832,-0.23812 0.34659,-0.52916 z m 50.65558,-0.0226 c -0.16243,-0.30351 -0.24549,-0.60167 -0.18458,-0.66258 0.0609,-0.0609 0.2466,0.18741 0.41264,0.55183 0.36462,0.80024 0.18709,0.88645 -0.22806,0.11075 z m -86.221144,-0.13168 c 0.0127,-0.30823 0.07539,-0.37092 0.159851,-0.15985 0.07643,0.19099 0.06703,0.41919 -0.02088,0.50711 -0.08792,0.0879 -0.150453,-0.0684 -0.138964,-0.34726 z m 18.542288,-2.02849 c -0.02328,-1.41883 0.04695,-2.57993 0.156093,-2.58024 0.109141,-2.6e-4 0.165579,0.80337 0.125421,1.78594 -0.128307,3.13933 -0.237945,3.44868 -0.281514,0.7943 z m 35.504266,0.0662 c 0,-1.23693 0.0456,-1.74294 0.10129,-1.12448 0.0557,0.61846 0.0557,1.63049 0,2.24896 -0.0557,0.61846 -0.10129,0.11245 -0.10129,-1.12448 z m 19.82337,1.05833 c 0,-0.65484 0.0516,-0.92273 0.11466,-0.59531 0.0631,0.32742 0.0631,0.8632 0,1.19062 -0.0631,0.32743 -0.11466,0.0595 -0.11466,-0.59531 z m 17.53974,0.71619 c 0.0994,-0.26093 0.2473,-0.40778 0.32876,-0.32631 0.0815,0.0815 1.7e-4,0.29495 -0.18065,0.47443 -0.26131,0.25936 -0.2917,0.22897 -0.14811,-0.14812 z m -117.299497,-5.19335 c -0.05127,-4.60004 -0.125306,-5.47504 -0.498104,-5.88698 -0.240835,-0.26612 -0.320486,-0.48385 -0.177001,-0.48385 0.73154,0 0.892769,1.28277 0.814739,6.48229 l -0.07941,5.29166 z m 94.702957,2.97134 c -0.0233,-1.33748 0.047,-2.48734 0.15609,-2.55526 0.10914,-0.0679 0.16558,0.66921 0.12542,1.63804 -0.12722,3.06907 -0.23777,3.42929 -0.28151,0.91722 z m -62.727708,1.61599 c 0.0127,-0.30823 0.07539,-0.37092 0.159851,-0.15986 0.07643,0.191 0.06703,0.4192 -0.02088,0.50712 -0.08792,0.0879 -0.150452,-0.0684 -0.138964,-0.34726 z m 40.460358,-0.11025 c -0.15576,-0.29104 -0.22367,-0.52916 -0.15091,-0.52916 0.0728,0 0.25974,0.23812 0.4155,0.52916 0.15576,0.29104 0.22367,0.52917 0.15091,0.52917 -0.0728,0 -0.25974,-0.23813 -0.4155,-0.52917 z m 0.81464,-0.41892 c 0.0127,-0.30823 0.0754,-0.37092 0.15985,-0.15985 0.0764,0.19099 0.067,0.41919 -0.0209,0.50711 -0.0879,0.0879 -0.15046,-0.0683 -0.13897,-0.34726 z m 33.64792,-1.56545 c 0.003,-0.58209 0.0571,-0.78906 0.1204,-0.45994 0.0633,0.32912 0.0609,0.80537 -0.005,1.05833 -0.0662,0.25297 -0.118,-0.0163 -0.11507,-0.59839 z m -7.1687,0.13229 c 0,-0.3638 0.0601,-0.51263 0.13345,-0.33073 0.0734,0.1819 0.0734,0.47956 0,0.66146 -0.0734,0.1819 -0.13345,0.0331 -0.13345,-0.33073 z m -47.086026,-0.39688 c 0.0054,-0.43656 0.06469,-0.58312 0.131773,-0.32569 0.06708,0.25743 0.06267,0.61462 -0.0098,0.79375 -0.07248,0.17913 -0.127363,-0.0315 -0.121971,-0.46806 z m 60.294306,-0.28663 c 0.0127,-0.30822 0.0754,-0.37092 0.15985,-0.15985 0.0764,0.19099 0.067,0.4192 -0.0209,0.50712 -0.0879,0.0879 -0.15046,-0.0683 -0.13897,-0.34727 z m 3.43958,-0.26458 c 0.0127,-0.30823 0.0754,-0.37092 0.15985,-0.15985 0.0764,0.19099 0.067,0.41919 -0.0209,0.50711 -0.0879,0.0879 -0.15045,-0.0683 -0.13897,-0.34726 z m -16.51325,-0.022 c -0.097,-0.097 -0.17277,-0.3649 -0.16834,-0.59531 0.007,-0.34404 0.0582,-0.33261 0.28884,0.0639 0.28489,0.48993 0.2023,0.85417 -0.1205,0.53137 z m -43.451335,-0.49967 c -0.493188,-0.39512 -0.489945,-0.40001 0.08172,-0.12298 0.327422,0.15867 0.595313,0.34383 0.595313,0.41147 0,0.20247 -0.137216,0.144 -0.677035,-0.28849 z m -53.495824,-0.77916 c 0.0029,-0.58208 0.05712,-0.78905 0.120406,-0.45994 0.06329,0.32912 0.06088,0.80537 -0.0053,1.05834 -0.06622,0.25296 -0.118004,-0.0163 -0.115067,-0.5984 z m 103.914519,0.52917 c 0,-0.21828 0.0468,-0.39688 0.10399,-0.39688 0.0572,0 0.17252,0.1786 0.25628,0.39688 0.0838,0.21828 0.037,0.39687 -0.10398,0.39687 -0.14096,0 -0.25629,-0.17859 -0.25629,-0.39687 z m -26.96661,-0.28663 c 0.0127,-0.30823 0.0754,-0.37092 0.15986,-0.15986 0.0764,0.191 0.067,0.4192 -0.0209,0.50712 -0.0879,0.0879 -0.15045,-0.0684 -0.13896,-0.34726 z m 38.65986,-0.24254 c 0.005,-0.43656 0.0647,-0.58313 0.13177,-0.32569 0.0671,0.25743 0.0627,0.61462 -0.01,0.79375 -0.0725,0.17913 -0.12736,-0.0315 -0.12197,-0.46806 z m -94.222354,0.0985 c -0.01148,-0.23684 0.18747,-0.59403 0.442132,-0.79375 0.402352,-0.31554 0.424341,-0.31112 0.167817,0.0337 -0.162361,0.21828 -0.36132,0.57547 -0.442132,0.79375 -0.122907,0.33199 -0.150344,0.32647 -0.167817,-0.0337 z m 53.113474,-0.042 c 0.16099,-0.19398 0.33102,-1.65418 0.3781,-3.2472 l 0.0856,-2.89471 0.0562,3.08055 c 0.0482,2.64522 -0.005,3.1041 -0.37811,3.2472 -0.33853,0.12991 -0.36979,0.0889 -0.14175,-0.18584 z m 33.44577,-0.45336 c 0,-0.50933 0.0545,-0.71769 0.121,-0.46303 0.0665,0.25467 0.0665,0.67138 0,0.92605 -0.0666,0.25466 -0.121,0.0463 -0.121,-0.46302 z m -93.393154,0.34678 c 0.254662,-0.0666 0.671381,-0.0666 0.926042,0 0.254662,0.0666 0.0463,0.121 -0.463021,0.121 -0.509323,0 -0.717682,-0.0545 -0.463021,-0.121 z m -5.336924,-1.03029 c 0.0127,-0.30823 0.07539,-0.37092 0.159853,-0.15985 0.07643,0.19099 0.06703,0.41919 -0.02089,0.50711 -0.08792,0.0879 -0.150453,-0.0684 -0.138965,-0.34726 z m 10.827028,-0.21014 c 0,-0.0549 0.20836,-0.2633 0.463021,-0.46302 0.419645,-0.32911 0.429004,-0.31975 0.0999,0.0999 -0.345643,0.44073 -0.562917,0.58089 -0.562917,0.36313 z m 57.3665,-0.23109 c 0.57908,-0.27866 0.60867,-0.41686 0.52917,-2.47125 -0.0463,-1.19684 0.005,-2.12049 0.11422,-2.05256 0.10915,0.0679 0.19844,1.06481 0.19844,2.21527 0,1.79725 -0.0721,2.1303 -0.51177,2.36563 -0.28147,0.15064 -0.6089,0.26584 -0.7276,0.25599 -0.11871,-0.01 0.0602,-0.15073 0.39754,-0.31308 z m 19.3987,-1.30704 c -0.0198,-0.97368 0.0533,-1.82569 0.1624,-1.89335 0.10914,-0.0677 0.16406,0.49085 0.12204,1.24115 -0.12631,2.25532 -0.24622,2.53025 -0.28444,0.6522 z m 13.21402,1.2191 c 0.0127,-0.30822 0.0754,-0.37092 0.15985,-0.15985 0.0764,0.19099 0.067,0.4192 -0.0209,0.50712 -0.0879,0.0879 -0.15046,-0.0684 -0.13897,-0.34727 z m -104.437387,-2.09467 c -7.94e-4,-1.30968 0.04393,-1.87882 0.09942,-1.26475 0.05549,0.61407 0.05615,1.68563 0.0015,2.38125 -0.05467,0.69561 -0.100073,0.19319 -0.100879,-1.1165 z m 27.515199,0.1323 c 0,-1.23693 0.04558,-1.74295 0.101282,-1.12448 0.0557,0.61846 0.0557,1.63049 0,2.24895 -0.05571,0.61847 -0.101282,0.11245 -0.101282,-1.12447 z m 59.835678,1.88068 -1.05834,-0.16089 -0.0793,-1.52136 -0.0794,-1.52135 h 0.77456 c 0.42781,0 0.93141,0.20728 1.12492,0.46302 0.29807,0.3939 0.29501,0.41365 -0.0205,0.13229 -0.20397,-0.1819 -0.64472,-0.33073 -0.97941,-0.33073 -0.55386,0 -0.60854,0.11887 -0.60854,1.32292 v 1.32292 h 1.05833 c 0.58208,0 1.05833,0.11906 1.05833,0.26458 0,0.14552 -0.0298,0.24769 -0.0661,0.22703 -0.0364,-0.0206 -0.5424,-0.10994 -1.12448,-0.19843 z m -80.739507,-2.01298 c 9.52e-4,-1.16416 0.04748,-1.6075 0.103369,-0.98519 0.05589,0.62231 0.0551,1.57481 -0.0017,2.11667 -0.05685,0.54185 -0.102584,0.0327 -0.101623,-1.13148 z m 74.984817,1.79765 c 0.32742,-0.0631 0.8632,-0.0631 1.19062,0 0.32743,0.0631 0.0595,0.11467 -0.59531,0.11467 -0.65484,0 -0.92273,-0.0516 -0.59531,-0.11467 z m -86.960881,-0.49678 c 0.0127,-0.30822 0.07539,-0.37092 0.159853,-0.15985 0.07643,0.19099 0.06703,0.4192 -0.02089,0.50712 -0.08792,0.0879 -0.150453,-0.0683 -0.138965,-0.34727 z M 2.38908,173.04771 c -0.01688,-0.83674 0.06175,-1.52135 0.174739,-1.52135 0.112985,0 0.166216,0.50601 0.118292,1.12448 -0.143618,1.85342 -0.260453,2.01166 -0.293031,0.39687 z m -12.445219,0.70556 c 0.0127,-0.30823 0.07539,-0.37092 0.15985,-0.15985 0.07643,0.19099 0.06703,0.41919 -0.02088,0.50711 -0.08792,0.0879 -0.150453,-0.0683 -0.138965,-0.34726 z m 26.193749,0 c 0.0127,-0.30823 0.07539,-0.37092 0.159851,-0.15985 0.07643,0.19099 0.06703,0.41919 -0.02088,0.50711 -0.08792,0.0879 -0.150453,-0.0683 -0.138964,-0.34726 z m 55.998088,0.22048 c -0.0572,-0.10914 -0.0222,-0.91281 0.0778,-1.78593 l 0.18169,-1.5875 0.0389,1.78593 c 0.0362,1.66099 -0.042,2.07702 -0.29837,1.5875 z m -84.023034,-0.59531 c 0,-0.3638 0.06006,-0.51263 0.133453,-0.33073 0.0734,0.1819 0.0734,0.47956 0,0.66146 -0.0734,0.1819 -0.133453,0.0331 -0.133453,-0.33073 z m -13.227544,-1.32291 0.02731,-1.7198 0.192501,1.32292 c 0.105876,0.7276 0.09359,1.50151 -0.02731,1.71979 -0.133062,0.24025 -0.209031,-0.28183 -0.192501,-1.32291 z m 90.729568,0.90399 c 0.0127,-0.30823 0.0754,-0.37092 0.15985,-0.15985 0.0764,0.19099 0.067,0.41919 -0.0209,0.50711 -0.0879,0.0879 -0.15045,-0.0684 -0.13897,-0.34726 z m -21.38007,-0.90399 c 0,-0.65485 0.0516,-0.92274 0.11466,-0.59532 0.0631,0.32742 0.0631,0.86321 0,1.19063 -0.0631,0.32742 -0.11466,0.0595 -0.11466,-0.59531 z m 3.83764,0.73259 c 0.15422,-0.18581 0.3306,-0.75408 0.39196,-1.26282 0.10913,-0.9048 0.11249,-0.90106 0.15391,0.17119 0.0309,0.79929 -0.0753,1.14131 -0.39196,1.26283 -0.33001,0.12664 -0.36697,0.0855 -0.15391,-0.1712 z m 31.51071,-0.40187 c -0.32911,-0.41964 -0.31975,-0.429 0.0999,-0.0999 0.25466,0.19972 0.46302,0.40808 0.46302,0.46302 0,0.21776 -0.21728,0.0776 -0.56292,-0.36313 z m -29.07041,-0.84428 c 0,-0.57349 0.0893,-1.0979 0.19843,-1.16536 0.10914,-0.0675 0.19844,0.40177 0.19844,1.04272 0,0.64095 -0.0893,1.16536 -0.19844,1.16536 -0.10914,0 -0.19843,-0.46922 -0.19843,-1.04272 z m -90.619794,0.51356 c -0.08994,-0.14553 -0.424385,-0.27399 -0.743219,-0.28548 -0.318834,-0.0115 -0.426942,-0.0822 -0.24024,-0.15725 0.186702,-0.075 0.543889,-0.0467 0.79375,0.0629 0.249861,0.10959 0.552439,0.1774 0.672396,0.15069 0.119958,-0.0267 0.142696,0.0735 0.05053,0.22258 -0.21006,0.33989 -0.326326,0.34131 -0.533218,0.007 z m 105.171874,0 c -0.23847,-0.15411 -0.2711,-0.2581 -0.0818,-0.26054 0.17331,-0.002 0.3887,0.11501 0.47863,0.26054 0.20302,0.32848 0.11142,0.32848 -0.39687,0 z M -44.926353,170.8649 c 0.002,-0.7276 0.05337,-0.99386 0.114186,-0.59167 0.06081,0.40218 0.05919,0.99749 -0.0036,1.32291 -0.0628,0.32542 -0.11256,-0.004 -0.110574,-0.73124 z m 27.176408,0.92604 -0.926041,-0.19492 0.84428,-0.0348 c 0.464354,-0.0192 0.917866,0.0842 1.007803,0.22975 0.08994,0.14552 0.12673,0.24891 0.08176,0.22976 -0.04497,-0.0192 -0.49848,-0.12255 -1.007803,-0.22976 z m 33.303749,-0.19844 c -0.329107,-0.41964 -0.319749,-0.429 0.0999,-0.0999 0.44073,0.34564 0.580888,0.56292 0.363125,0.56292 -0.05494,0 -0.2633,-0.20836 -0.463021,-0.46303 z m -28.855442,0.0177 c 0.190995,-0.0764 0.419198,-0.067 0.507119,0.0209 0.08792,0.0879 -0.06835,0.15045 -0.347265,0.13897 -0.308227,-0.0127 -0.37092,-0.0754 -0.159854,-0.15986 z m 67.589536,-0.003 c 0.25743,-0.0671 0.61462,-0.0627 0.79375,0.01 0.17913,0.0725 -0.0315,0.12736 -0.46805,0.12197 -0.43657,-0.005 -0.58313,-0.0647 -0.3257,-0.13178 z m 22.15382,-0.16399 c 0,-0.0455 0.38695,-0.43249 0.8599,-0.8599 l 0.85989,-0.7771 -0.7771,0.85989 c -0.72437,0.80155 -0.94269,0.98151 -0.94269,0.77711 z m -45.24375,-0.28169 c 0,-0.0549 0.20836,-0.2633 0.46302,-0.46302 0.41965,-0.32911 0.42901,-0.31975 0.0999,0.0999 -0.34564,0.44073 -0.56292,0.58089 -0.56292,0.36313 z m 35.42042,-0.62771 c -0.32911,-0.41964 -0.31975,-0.429 0.0999,-0.0999 0.44073,0.34564 0.58089,0.56291 0.36313,0.56291 -0.0549,0 -0.2633,-0.20836 -0.46302,-0.46302 z m -100.09403,-0.40793 c 0.09936,-0.26093 0.247304,-0.40778 0.328766,-0.32631 0.08146,0.0815 1.68e-4,0.29495 -0.180653,0.47443 -0.261307,0.25936 -0.291698,0.22897 -0.148113,-0.14812 z m 45.772915,0 c 0.09936,-0.26093 0.247303,-0.40778 0.328766,-0.32631 0.08146,0.0815 1.69e-4,0.29495 -0.180652,0.47443 -0.261308,0.25936 -0.291698,0.22897 -0.148114,-0.14812 z m 30.806945,-0.21004 c -1.14805,-0.12253 -0.89673,-0.16001 1.19063,-0.17755 2.58291,-0.0217 3.05274,0.076 1.19062,0.24754 -0.50932,0.0469 -1.58088,0.0154 -2.38125,-0.07 z m -55.612106,-0.15772 c 0.190995,-0.0764 0.419198,-0.067 0.507119,0.0209 0.08792,0.0879 -0.06835,0.15046 -0.347265,0.13897 -0.308227,-0.0127 -0.37092,-0.0754 -0.159854,-0.15985 z m 60.973556,-0.009 c 0.40219,-0.0608 0.9975,-0.0592 1.32292,0.004 0.32542,0.0628 -0.004,0.11256 -0.73124,0.11057 -0.72761,-0.002 -0.99386,-0.0534 -0.59168,-0.11418 z m 3.44561,-0.006 c 0.84206,-0.0527 2.15174,-0.0522 2.91041,0.001 0.75868,0.0533 0.0697,0.0964 -1.53101,0.0958 -1.60073,-5.3e-4 -2.22146,-0.0442 -1.3794,-0.0968 z m 5.81915,0.001 c 0.69562,-0.0547 1.76718,-0.054 2.38125,0.002 0.61408,0.0555 0.0449,0.10023 -1.26475,0.0994 -1.30969,-8e-4 -1.81211,-0.0462 -1.1165,-0.10089 z m 4.75452,0.002 c 0.5457,-0.0571 1.43867,-0.0571 1.98438,0 0.5457,0.0571 0.0992,0.10379 -0.99219,0.10379 -1.09141,0 -1.53789,-0.0467 -0.99219,-0.10379 z m 6.48229,0.006 c 0.32742,-0.0631 0.86321,-0.0631 1.19063,0 0.32742,0.0631 0.0595,0.11466 -0.59531,0.11466 -0.65485,0 -0.92274,-0.0516 -0.59532,-0.11466 z m 3.43369,-0.004 c 0.46969,-0.0584 1.30313,-0.0594 1.85208,-0.002 0.54895,0.0573 0.16465,0.1051 -0.854,0.10627 -1.01864,10e-4 -1.46778,-0.0457 -0.99808,-0.10414 z m 6.3559,0.0157 c 0.1819,-0.0734 0.47955,-0.0734 0.66145,0 0.1819,0.0734 0.0331,0.13346 -0.33073,0.13346 -0.3638,0 -0.51263,-0.0601 -0.33072,-0.13346 z m -45.17761,-0.71849 c 0,-0.0549 0.20836,-0.2633 0.46302,-0.46302 0.41965,-0.32911 0.42901,-0.31975 0.0999,0.0999 -0.34564,0.44073 -0.56292,0.58089 -0.56292,0.36312 z m -19.507102,-2.28135 c 0,-0.65484 0.0516,-0.92274 0.114663,-0.59531 0.06307,0.32742 0.06307,0.8632 0,1.19062 -0.06306,0.32742 -0.114663,0.0595 -0.114663,-0.59531 z m 20.321742,-1.74184 c 0.0127,-0.30823 0.0754,-0.37092 0.15985,-0.15985 0.0764,0.19099 0.067,0.41919 -0.0209,0.50712 -0.0879,0.0879 -0.15046,-0.0684 -0.13897,-0.34727 z m -1.64214,-2.95452 c -0.3291,-0.41964 -0.31975,-0.429 0.0999,-0.0999 0.44073,0.34564 0.58089,0.56292 0.36312,0.56292 -0.0549,0 -0.2633,-0.20836 -0.46302,-0.46303 z m -4.00114,-2.35804 c 0.1819,-0.0734 0.47955,-0.0734 0.66146,0 0.1819,0.0734 0.0331,0.13346 -0.33073,0.13346 -0.36381,0 -0.51263,-0.0601 -0.33073,-0.13346 z m -2.10013,-0.27009 c 0.19099,-0.0764 0.4192,-0.067 0.50712,0.0209 0.0879,0.0879 -0.0684,0.15045 -0.34727,0.13896 -0.30823,-0.0127 -0.37092,-0.0754 -0.15985,-0.15985 z m -3.72071,-0.52366 c 0.1819,-0.0734 0.47956,-0.0734 0.66146,0 0.1819,0.0734 0.0331,0.13346 -0.33073,0.13346 -0.3638,0 -0.51263,-0.0601 -0.33073,-0.13346 z m -5.977492,-0.61852 c 0,-0.3638 0.06005,-0.51263 0.133453,-0.33073 0.0734,0.1819 0.0734,0.47956 0,0.66146 -0.0734,0.1819 -0.133453,0.0331 -0.133453,-0.33073 z m -7.714691,-0.16858 c 0,-0.14123 0.446484,-0.66709 0.992187,-1.16858 l 0.992188,-0.9118 -0.926042,1.05542 c -0.509323,0.58048 -0.955807,1.10634 -0.992188,1.16858 -0.03638,0.0622 -0.06614,-0.002 -0.06614,-0.14362 z"
           id="path2470" />
        <path
           style="fill:#090909;stroke-width:0.264583"
           d="m -9.989388,213.79355 c -1.503846,-4.01741 -1.581213,-4.33168 -1.179266,-4.79028 0.236593,-0.26994 0.414666,-0.5676 0.395719,-0.66146 -0.01894,-0.0939 0.08892,-0.46832 0.239694,-0.83212 0.15078,-0.3638 0.292147,-0.78052 0.314153,-0.92604 0.02201,-0.14552 0.137213,-0.47808 0.256018,-0.73903 0.202711,-0.44524 0.246256,-0.44706 0.70752,-0.0296 0.401156,0.36305 0.565383,0.38351 0.89335,0.11132 0.357468,-0.29667 0.401838,0.35665 0.401838,5.91661 0,3.43756 -0.09441,6.2501 -0.209796,6.2501 -0.115387,0 -0.93404,-1.93476 -1.81923,-4.29947 z m 90.838326,3.24114 c -1.43412,-3.50208 -3.09434,-8.32345 -2.97407,-8.63687 0.0758,-0.19743 0.36503,-0.35896 0.64282,-0.35896 0.59961,0 1.07555,-0.51403 1.23302,-1.33172 0.17131,-0.88954 0.30716,-0.90266 0.83095,-0.0803 0.26292,0.41281 0.57268,0.81872 0.68834,0.90202 0.11567,0.0833 0.17795,2.52409 0.13841,5.42396 l -0.0719,5.2725 z m -124.285045,-2.21404 c 0.490043,-0.79291 0.550746,-1.304 0.550746,-4.637 v -3.74588 l 0.802401,0.41494 c 0.441321,0.22821 0.733471,0.52646 0.649223,0.66278 -0.08425,0.13632 -0.01627,0.50367 0.151071,0.81634 l 0.304249,0.5685 0.581507,-0.62918 c 0.319829,-0.34604 0.660936,-0.83753 0.758016,-1.09219 0.09708,-0.25466 0.299308,-0.46302 0.449396,-0.46302 0.17434,0 0.272887,1.3248 0.272887,3.66849 0,3.26785 0.05779,3.74195 0.529167,4.34121 0.291041,0.37 0.529166,0.74324 0.529166,0.82943 0,0.0862 -1.378929,0.1567 -3.064287,0.1567 h -3.064288 z m 13.757484,0.12887 c 0.493888,-0.6936 0.551595,-1.1501 0.551595,-4.36352 0,-2.74905 0.07739,-3.56503 0.330729,-3.48698 1.016598,0.31319 1.892451,0.40964 1.528769,0.16836 -0.328154,-0.21771 -0.307329,-0.28778 0.132292,-0.44513 0.655972,-0.23478 1.465197,-0.91794 1.343097,-1.13386 -0.05072,-0.0897 0.130681,-0.39226 0.403114,-0.67239 0.484712,-0.49839 0.495332,-0.4289 0.495332,3.24115 v 3.75046 h 1.374585 c 1.136103,0 1.505191,-0.12513 2.127386,-0.72123 l 0.752802,-0.72123 -0.07687,2.50716 -0.07686,2.50717 -4.718783,0.0723 -4.718783,0.0724 z m 10.323162,-0.006 c 0.435915,-0.61219 0.547183,-1.17084 0.547183,-2.74727 0,-2.23637 0.141216,-2.37778 2.110822,-2.1136 0.818586,0.1098 1.091557,0.045 1.219959,-0.28962 0.09098,-0.23709 0.331272,-0.43107 0.533985,-0.43107 0.28802,0 0.368567,0.52594 0.368567,2.40656 0,2.00886 0.09042,2.53354 0.547182,3.175 l 0.547185,0.76844 h -3.211033 -3.211033 z m 15.520771,0.43772 c 0.103481,-0.18191 0.378399,-0.55167 0.610926,-0.8217 0.353271,-0.41025 0.422777,-1.26934 0.422777,-5.22558 0,-3.47925 0.08333,-4.7346 0.314288,-4.73455 0.17286,3e-5 0.699058,0.53584 1.169331,1.19068 0.470274,0.65484 0.973768,1.19062 1.118873,1.19062 0.145106,0 0.18488,0.0789 0.08839,0.17544 -0.09649,0.0965 0.181322,0.3924 0.617361,0.65757 l 0.7928,0.48213 0.0084,2.98045 c 0.0062,2.20056 0.110064,3.11485 0.396875,3.49405 0.213653,0.28247 0.388461,0.60989 0.388461,0.7276 0,0.11771 -1.376246,0.21401 -3.058324,0.21401 -2.370617,0 -3.016015,-0.0744 -2.870171,-0.33072 z m 9.879229,-0.43772 c 0.490913,-0.68943 0.548048,-1.15876 0.555596,-4.56407 0.0074,-3.31307 0.05556,-3.73338 0.379272,-3.30609 0.20397,0.26923 0.503055,0.40781 0.664634,0.30795 0.161578,-0.0999 0.464764,-0.0397 0.673751,0.13378 0.303969,0.25228 0.543864,0.17745 1.199335,-0.3741 0.450648,-0.37919 0.929288,-0.68944 1.063646,-0.68944 0.138162,0 0.244282,1.67759 0.244282,3.86176 0,3.48004 0.05409,3.93772 0.547182,4.63021 l 0.547184,0.76844 H 8.708388 5.497354 Z m 6.751426,-0.11643 c 0.652407,-0.85535 0.674923,-1.01395 0.674923,-4.75445 0,-3.43282 0.06254,-3.98248 0.554101,-4.86981 0.304755,-0.55013 0.646845,-1.09825 0.760201,-1.21805 0.258746,-0.27344 1.425387,1.57169 1.212024,1.91692 -0.08619,0.13944 0.02864,0.40951 0.25517,0.60013 1.206836,1.01556 1.187254,0.94366 1.187254,4.35954 0,2.92596 0.06403,3.40361 0.547182,4.08215 l 0.547185,0.76844 h -3.206483 -3.20648 z m 8.612423,0.80399 c 0,-0.0445 0.29766,-0.48434 0.66146,-0.97745 0.6041,-0.81882 0.66146,-1.13143 0.66146,-3.60545 0,-2.48402 0.0443,-2.72295 0.5336,-2.87825 0.29348,-0.0931 0.76513,-0.60719 1.0481,-1.14231 0.92627,-1.75164 0.91646,-1.74599 1.72713,-0.99469 0.41416,0.38383 0.58113,0.6832 0.38105,0.6832 -0.27699,0 -0.28558,0.0706 -0.0386,0.3175 0.21356,0.21356 0.32025,1.4478 0.32591,3.77031 0.006,2.61611 0.10255,3.57727 0.39687,3.96641 0.21366,0.28247 0.38847,0.60989 0.38847,0.7276 0,0.11771 -1.36922,0.21401 -3.04271,0.21401 -1.67349,0 -3.04271,-0.0364 -3.04271,-0.0809 z m 10.03615,-0.68756 c 0.4987,-0.70036 0.54718,-1.14582 0.54718,-5.02709 0,-2.6627 0.0992,-4.25863 0.26459,-4.25863 0.14552,0 0.26458,0.11906 0.26458,0.26458 0,0.48883 0.63956,0.27046 1.23401,-0.42135 0.59059,-0.68731 1.14724,-0.6703 1.14724,0.035 0,0.20692 0.29766,0.45093 0.66146,0.54224 l 0.66146,0.16601 v 3.96537 c 0,3.58479 0.0525,4.03912 0.54718,4.73382 l 0.54718,0.76844 h -3.21103 -3.21103 z m 6.36802,0.61174 c 0,-0.0862 0.23812,-0.45943 0.52916,-0.82943 0.4867,-0.61873 0.52917,-1.07336 0.52917,-5.66413 0,-4.59637 0.19647,-5.9273 0.65957,-4.46818 0.0913,0.28777 0.36725,0.50703 0.61314,0.48725 2.47145,-0.19889 2.69604,0.23118 2.69604,5.16261 0,3.27269 0.0618,3.78633 0.55075,4.57746 l 0.55074,0.89112 h -3.06429 c -1.68536,0 -3.06428,-0.0705 -3.06428,-0.1567 z m 6.61458,0 c 0,-0.0862 0.23812,-0.45943 0.52917,-0.82943 0.48539,-0.61708 0.52916,-1.07336 0.52916,-5.51622 0,-2.69161 0.10904,-4.91089 0.24543,-4.99518 0.13499,-0.0834 0.63142,0.38579 1.10319,1.04271 0.47176,0.65693 0.9864,1.19837 1.14363,1.20321 0.15723,0.005 0.55377,0.23229 0.88119,0.50543 0.53261,0.44432 0.59531,0.736 0.59531,2.76932 v 2.2727 h 1.34822 c 0.93891,0 1.58151,-0.16612 2.11667,-0.54718 0.42264,-0.30096 0.76828,-0.50932 0.76808,-0.46303 -2e-4,0.0463 -0.17863,1.0962 -0.39651,2.33312 -0.21788,1.23693 -0.39631,2.27873 -0.39651,2.31511 -2e-4,0.0364 -1.90536,0.0661 -4.2337,0.0661 -2.32833,0 -4.23333,-0.0705 -4.23333,-0.1567 z m 14.52571,-0.35506 c -1.20948,-0.65832 -2.43419,-2.05063 -3.2909,-3.74126 -0.67328,-1.32866 -0.67773,-1.92739 -0.0124,-1.67209 0.50079,0.19217 2.29426,-0.59958 2.20917,-0.97527 -0.16638,-0.73467 0.51291,-0.43018 0.98151,0.43994 0.93938,1.74433 2.29903,2.41055 3.1608,1.54878 0.22756,-0.22755 0.51578,-0.35068 0.64049,-0.27361 0.12471,0.0771 0.48648,-0.15857 0.80392,-0.52367 l 0.57718,-0.66381 1.17381,1.00356 c 0.64559,0.55197 1.17771,1.1627 1.18248,1.35719 0.0142,0.5796 -1.50985,2.50899 -2.53025,3.20316 -1.29638,0.88192 -3.56804,1.01977 -4.89578,0.29708 z m 10.87429,0.35506 c 0,-0.0862 0.23812,-0.45943 0.52917,-0.82943 0.44794,-0.56947 0.52916,-1.07336 0.52916,-3.28288 0,-1.56371 0.10608,-2.61015 0.26458,-2.61015 0.14553,0 0.26459,-0.1786 0.26459,-0.39688 0,-0.21828 0.10462,-0.39687 0.23248,-0.39687 0.12787,0 0.3815,-0.35975 0.56362,-0.79943 0.18212,-0.43968 0.42395,-0.85679 0.53739,-0.9269 0.38927,-0.24058 1.04776,0.19562 1.04776,0.69406 0,0.27424 0.23812,0.64733 0.52916,0.82909 0.47766,0.2983 0.52917,0.61701 0.52917,3.27385 0,2.54275 0.072,3.03495 0.52917,3.61611 0.29104,0.37 0.52916,0.74324 0.52916,0.82943 0,0.0862 -1.36921,0.1567 -3.0427,0.1567 -1.67349,0 -3.04271,-0.0705 -3.04271,-0.1567 z M -3.436336,203.93227 c -0.494961,-0.2197 -0.81666,-0.48272 -0.714886,-0.5845 0.101775,-0.10177 1.117428,-0.14971 2.257007,-0.10653 1.718945,0.0651 2.267993,-0.0215 3.222514,-0.50846 1.512649,-0.77169 2.925175,-1.68695 4.865664,-3.15273 0.87264,-0.65917 2.896703,-2.08107 4.497916,-3.15979 1.601216,-1.07872 3.8638,-2.6683 5.027967,-3.5324 1.164167,-0.8641 2.444089,-1.74074 2.844271,-1.94809 0.546163,-0.28299 0.727604,-0.57324 0.727604,-1.16396 0,-0.91039 0.0076,-0.9078 -1.195509,-0.40509 -0.815658,0.34081 -0.897297,0.46505 -0.759225,1.15541 0.176081,0.8804 0.0504,0.93916 -2.675474,1.25088 -1.5503,0.17728 -4.106122,1.41684 -11.401856,5.52984 -3.524758,1.9871 -6.178979,2.39598 -7.581252,1.1679 l -0.596058,-0.52202 2.135354,0.16231 c 2.637385,0.20048 3.620156,-0.12941 8.315687,-2.7914 3.198265,-1.81315 4.461957,-2.67293 3.307292,-2.25017 -0.291042,0.10656 -0.91612,0.25872 -1.389063,0.33814 l -0.859896,0.1444 v -1.58644 c 0,-1.91267 0.533586,-2.73973 2.063242,-3.19803 1.553816,-0.46553 5.648412,-0.39793 6.92885,0.1144 0.983917,0.39369 1.116351,0.3928 1.733577,-0.0116 0.367551,-0.24084 0.60462,-0.54088 0.526817,-0.66677 -0.0778,-0.12588 0.01669,-0.84691 0.210013,-1.60226 0.433215,-1.6928 0.347556,-3.71691 -0.223846,-5.28935 -0.444687,-1.22374 -0.697843,-2.56822 -1.281366,-6.80512 -0.191199,-1.38827 -0.51303,-2.64243 -0.746845,-2.91042 -0.664615,-0.76176 -1.537525,-3.43818 -1.537525,-4.71418 0,-1.0647 -0.06141,-1.1807 -0.625078,-1.1807 -0.733978,0 -2.486845,-1.29862 -3.137776,-2.32464 -2.009881,-3.16803 -2.017072,-4.65138 -0.03108,-6.4106 1.833923,-1.62452 3.494016,-1.99815 4.613347,-1.03831 0.349689,0.29986 0.912235,0.78276 1.250108,1.0731 0.476414,0.4094 0.595474,0.74655 0.530395,1.50193 -0.105852,1.22862 0.09964,1.27764 3.613028,0.86189 2.228566,-0.26371 3.173046,-0.24539 5.931906,0.11505 3.29687,0.43073 4.56331,0.83912 4.99516,1.6108 0.12814,0.22897 0.5168,0.55781 0.86367,0.73075 0.34688,0.17293 0.99007,0.89572 1.42932,1.60619 0.6579,1.06412 0.79942,1.57645 0.80313,2.90727 0.005,1.82938 -0.33536,2.442 -2.11729,3.80995 l -1.08977,0.83659 0.18236,1.54653 c 0.18964,1.60843 0.61547,2.6985 1.05413,2.6985 0.1404,0 0.25527,0.23174 0.25527,0.51499 0,0.76274 1.78213,3.66541 2.31658,3.77315 0.25385,0.0512 1.11639,-0.22648 1.91676,-0.61702 0.80036,-0.39055 2.31841,-1.09975 3.37343,-1.57601 l 1.91823,-0.86593 v -2.94293 c 0,-1.93616 -0.10861,-3.05154 -0.3175,-3.26042 -0.24694,-0.24694 -0.0265,-0.31756 0.99219,-0.31776 l 1.30969,-2.6e-4 -0.0909,2.64609 c -0.05,1.45535 -0.0124,2.6461 0.0835,2.6461 0.096,0 0.40478,-0.12326 0.68625,-0.2739 0.43852,-0.23469 0.51177,-0.56795 0.51177,-2.32833 0,-1.24512 -0.12507,-2.17952 -0.3175,-2.37194 -0.24694,-0.24694 -0.10712,-0.3175 0.6292,-0.3175 0.91351,0 0.96728,0.055 1.53362,1.56941 0.41207,1.10186 0.69756,1.52696 0.9583,1.4269 0.43115,-0.16544 0.50208,-1.72856 0.11155,-2.45827 -0.23175,-0.43303 -0.12953,-0.49588 0.94569,-0.58139 1.27176,-0.10115 1.97641,0.10303 1.45906,0.42277 -0.32863,0.2031 -0.40794,2.26641 -0.0871,2.26641 0.11314,0 0.45443,-0.17421 0.75843,-0.38714 0.53525,-0.37491 0.6471,-1.31353 0.23582,-1.97899 -0.11632,-0.18822 0.56778,-0.2797 2.09171,-0.2797 h 2.26458 v 1.05833 c 0,1.00452 -0.305,1.37052 -0.66146,0.79375 -0.0899,-0.14552 -0.45415,-0.26458 -0.80937,-0.26458 -0.61297,0 -0.64584,0.0808 -0.64584,1.5875 v 1.5875 h 1.05909 1.05909 l -0.34917,0.85989 c -0.25716,0.63328 -0.54185,0.8825 -1.08026,0.94566 l -0.73107,0.0858 0.0873,3.28805 0.0873,3.28804 -1.26608,-2.6e-4 c -1.1697,-2.7e-4 -1.24523,-0.0393 -0.99219,-0.51214 0.15064,-0.28158 0.2739,-1.76986 0.2739,-3.3074 0,-2.39123 -0.0615,-2.79552 -0.42519,-2.79552 -0.30826,0 -0.36764,-0.12733 -0.21594,-0.46302 0.11508,-0.25466 0.25922,-1.11081 0.3203,-1.90256 l 0.11107,-1.43953 -0.62273,0.41303 c -0.61215,0.40603 -0.62497,0.50459 -0.75501,5.80516 l -0.1323,5.39213 -1.4552,-3.96875 -1.45521,-3.96875 -0.0751,3.00484 c -0.0497,1.98895 0.0284,3.12945 0.23083,3.37344 0.25554,0.30789 0.0522,0.3686 -1.23461,0.3686 -1.19818,0 -1.46996,-0.0706 -1.22302,-0.3175 0.21382,-0.21382 0.3175,-1.42161 0.3175,-3.6985 v -3.38099 l -0.66146,0.30138 c -0.64802,0.29526 -0.66138,0.36098 -0.65784,3.23547 0.002,1.61375 0.0733,3.19398 0.1585,3.51162 0.12717,0.47419 1.42786,1.08174 7.26962,3.39563 l 7.11473,2.81811 1.29238,-0.42926 c 1.14468,-0.3802 1.4182,-0.38591 2.39333,-0.05 1.60214,0.55198 2.70204,1.38889 3.83631,2.919 l 1.00244,1.35228 -1.54744,0.15174 c -0.8511,0.0835 -1.84825,0.27875 -2.21589,0.43398 -0.54263,0.22911 -0.78471,0.1881 -1.28609,-0.21789 -0.33969,-0.27507 -0.83343,-0.50013 -1.09718,-0.50013 -0.60371,0 -2.02639,1.17922 -2.2419,1.85824 -0.27171,0.85606 -4.62826,1.84101 -4.62826,1.04637 0,-0.74699 1.64751,-3.72399 2.71186,-4.90025 l 1.20725,-1.33418 -1.76112,-0.62518 c -0.96861,-0.34385 -3.90424,-1.48976 -6.52361,-2.54646 -2.61938,-1.0567 -5.41735,-2.18063 -6.21771,-2.49762 -0.80037,-0.31699 -1.75287,-0.72472 -2.11667,-0.90607 -0.3638,-0.18135 -1.41456,-0.60459 -2.33502,-0.94053 -0.99593,-0.36349 -1.83852,-0.86257 -2.08095,-1.23257 -0.22406,-0.34196 -0.6464,-0.62174 -0.93852,-0.62174 -0.4311,0 -0.47187,0.0714 -0.21645,0.37917 0.356,0.42896 0.63718,0.21666 -3.68947,2.78568 -3.96486,2.35421 -7.40834,4.58257 -7.40834,4.79413 0,0.3169 1.13141,0.50034 3.10886,0.50407 1.7183,0.003 1.91823,0.0569 1.91823,0.51495 0,0.28491 0.23432,0.57781 0.52916,0.66146 0.29104,0.0826 0.79122,0.22527 1.1115,0.31712 0.57023,0.16352 0.57298,0.1527 0.1323,-0.51986 -0.24753,-0.37777 -0.45005,-0.75058 -0.45005,-0.82846 0,-0.0779 1.37786,-0.1416 3.06191,-0.1416 h 3.06192 l -0.54837,0.69714 c -1.08882,1.38421 -0.69662,2.09854 1.44767,2.63673 0.59659,0.14973 0.64979,0.0878 0.64979,-0.75596 0,-0.51842 -0.23068,-1.2123 -0.52917,-1.59177 -0.29104,-0.37 -0.52916,-0.74325 -0.52916,-0.82943 0,-0.0862 1.37732,-0.15671 3.06072,-0.15671 h 3.06073 l -0.54719,0.76845 c -0.75992,1.06721 -0.79639,3.72947 -0.0511,3.72947 0.27285,0 0.86817,0.0744 1.32292,0.16536 l 0.82682,0.16537 v -1.73725 c 0,-0.95549 -0.11842,-1.81044 -0.26316,-1.8999 -0.14474,-0.0894 -0.38705,-0.39413 -0.53847,-0.67707 -0.26534,-0.49578 -0.16402,-0.51443 2.79471,-0.51443 h 3.07004 l -0.569,0.79909 c -0.4892,0.68701 -0.56234,1.12301 -0.52154,3.10885 0.0795,3.87166 0.29042,3.50039 -1.9882,3.50039 h -1.98438 v -0.89773 c 0,-0.99741 -0.31647,-1.21893 -1.74143,-1.21893 -0.87875,0 -0.9044,0.03 -0.9044,1.05833 0,1.21352 -0.2422,1.28452 -2.63281,0.77183 l -1.33594,-0.28651 v -1.40187 -1.40188 l -1.1755,-0.29599 c -0.64652,-0.1628 -1.24183,-0.296 -1.32291,-0.296 -0.0811,0 -0.14742,0.47625 -0.14742,1.05834 0,0.58208 -0.0893,1.05362 -0.19844,1.04785 -0.10914,-0.006 -1.03188,-0.33562 -2.05052,-0.73302 -1.78179,-0.69513 -1.85514,-0.75892 -1.9325,-1.68076 -0.0732,-0.87234 -0.17397,-0.98194 -1.12448,-1.22321 l -1.04406,-0.26501 v 0.91731 c 0,0.60349 -0.11315,0.88778 -0.33073,0.83099 -0.1819,-0.0475 -1.75948,-0.44055 -3.50573,-0.87351 -1.74625,-0.43296 -3.24989,-0.89257 -3.34141,-1.02136 -0.0915,-0.12879 -0.23095,-0.0719 -0.30984,0.12651 -0.11433,0.28748 -0.14767,0.28972 -0.16432,0.011 -0.0158,-0.26488 -0.12167,-0.24885 -0.43666,0.0662 -0.228678,0.22868 -0.627534,0.41577 -0.886347,0.41577 -0.258813,0 -0.934919,0.33447 -1.502455,0.74325 -0.567537,0.40879 -1.210479,0.81972 -1.428761,0.91317 -0.218281,0.0935 -2.718593,1.78207 -5.556249,3.75247 -2.837657,1.97041 -6.363981,4.40217 -7.836276,5.40392 -3.631517,2.47088 -6.280885,3.31176 -8.012615,2.5431 z m 26.822984,-16.45131 c 1.37584,-1.00891 1.2723,-1.44017 -0.20577,-0.85706 -0.90342,0.35641 -2.037074,1.25647 -2.037074,1.61733 0,0.48915 1.002384,0.14936 2.242844,-0.76027 z m -0.53556,-1.77613 c 0.65049,-0.49652 1.53214,-0.97952 1.95923,-1.07333 0.4271,-0.0938 0.97868,-0.39392 1.22575,-0.66693 0.42459,-0.46916 0.41884,-0.51534 -0.10486,-0.84239 -0.6897,-0.43073 -0.70018,-0.79824 -0.0398,-1.39585 0.42573,-0.38528 0.45988,-0.55358 0.19843,-0.97783 -0.262,-0.42516 -5.419092,-3.93047 -5.782584,-3.93047 -0.06242,0 -0.06687,1.51804 -0.0099,3.37343 0.08989,2.9268 0.170326,3.42615 0.607473,3.77156 0.404275,0.31944 0.459589,0.55476 0.279858,1.19063 -0.241613,0.8548 -0.14128,1.45396 0.243474,1.45396 0.132136,0 0.772469,-0.40625 1.422949,-0.90278 z m 19.45938,-5.8441 c 0,-1.38244 -0.0625,-2.51354 -0.13889,-2.51354 -0.24012,0 -3.67528,1.8206 -4.16059,2.20507 -0.25466,0.20175 -0.46302,0.48804 -0.46302,0.63622 0,0.23393 4.02638,2.15487 4.56406,2.17746 0.10915,0.005 0.19844,-1.12276 0.19844,-2.50521 z m -71.437496,14.19089 c 0,-3.84602 -0.04594,-4.25605 -0.54837,-4.89479 l -0.54837,-0.69714 h 4.781703 4.781704 v 2.24896 c 0,1.23693 -0.0893,2.24517 -0.198438,2.24054 -0.10914,-0.005 -0.429553,-0.18322 -0.712028,-0.39687 -0.301816,-0.22828 -1.09278,-0.38846 -1.918229,-0.38846 h -1.404639 v 3.04271 3.0427 h -2.116666 -2.116667 z m 10.31875,-0.29532 c 0,-3.54725 -0.0499,-3.96576 -0.54837,-4.59947 l -0.54837,-0.69714 1.937432,0.001 1.937433,0.001 1.529564,3.90137 c 0.841261,2.14576 1.525871,3.975 1.521354,4.06497 -0.0045,0.09 -0.454694,0.23122 -1.000397,0.31387 -0.545703,0.0827 -1.855391,0.32262 -2.910417,0.53327 l -1.918229,0.383 v -3.90233 z m -15.808854,3.5125 c -0.538873,-0.10379 -0.595312,-0.26593 -0.595312,-1.71022 0,-1.46772 -0.07347,-1.66902 -0.91702,-2.51257 -0.737624,-0.73763 -1.087006,-0.90067 -1.785938,-0.83344 l -0.868917,0.0836 -0.07645,2.3151 -0.07645,2.31511 h -0.746521 c -0.410586,0 -1.298919,-0.0757 -1.974074,-0.16826 l -1.227553,-0.16825 v -3.17395 c 0,-2.77447 -0.07077,-3.28847 -0.56228,-4.08374 l -0.562279,-0.90979 4.222377,0.0848 c 4.166323,0.0837 4.239275,0.0953 5.49515,0.87855 2.159501,1.34675 3.439549,4.44822 2.938405,7.11955 -0.175893,0.93759 -0.19485,0.94977 -1.42305,0.91421 -0.68463,-0.0198 -1.512672,-0.0876 -1.840094,-0.15069 z m 22.423437,-4.03884 c 0,-2.84476 -0.06576,-3.32573 -0.547182,-4.00182 l -0.547185,-0.76845 h 3.212222 3.212219 l -0.548371,0.69714 c -0.480803,0.61124 -0.54837,1.0631 -0.54837,3.66731 v 2.97018 l -1.25677,0.1556 c -0.691224,0.0856 -1.643724,0.23611 -2.116667,0.33451 l -0.859896,0.17891 z m 91.611973,1.47434 -1.91823,-0.54857 -0.006,-1.98813 c -0.005,-1.56504 -0.11599,-2.12888 -0.52329,-2.64958 -0.28457,-0.3638 -0.52005,-0.75075 -0.52328,-0.85989 -0.003,-0.10914 1.37702,-0.19844 3.06725,-0.19844 h 3.07314 l -0.49345,0.72761 c -0.37115,0.54726 -0.52624,1.38913 -0.62575,3.39659 l -0.13229,2.66898 z m -82.086973,-1.18067 v -1.35977 h -1.158229 c -0.706755,0 -1.286616,0.1547 -1.487604,0.39687 -0.631413,0.76081 -0.79375,0.38202 -0.79375,-1.85208 v -2.24896 h 5.291666 5.291667 v 2.24896 c 0,2.2341 -0.162338,2.61289 -0.79375,1.85208 -0.189151,-0.22791 -0.766149,-0.39687 -1.355312,-0.39687 H 1.300055 v 1.19062 c 0,1.05765 -0.06649,1.19088 -0.595313,1.19293 -0.327422,10e-4 -1.22039,0.0774 -1.984375,0.16914 l -1.389062,0.16685 z m 76.993743,-0.30144 c -0.3638,-0.11651 -1.28653,-0.2237 -2.05052,-0.23821 l -1.38906,-0.0264 v -1.35784 c 0,-0.91963 -0.18016,-1.64934 -0.55827,-2.26113 l -0.55828,-0.90331 1.90699,0.0783 1.90699,0.0783 0.90025,2.23389 c 1.16761,2.89736 1.17255,2.82247 -0.1581,2.39632 z m -79.100377,-8.86354 c -0.01797,-0.14552 -0.374509,-1.57427 -0.792337,-3.175 l -0.759687,-2.91042 -0.02276,2.1299 c -0.01423,1.33255 0.09611,2.24875 0.294746,2.4474 0.246944,0.24694 -0.284067,0.3175 -2.389552,0.3175 -1.937367,0 -2.734718,-0.094 -2.804348,-0.33073 -0.05351,-0.18191 -0.579527,-1.64042 -1.168924,-3.24115 l -1.071628,-2.91042 -0.01339,2.92365 c -0.0089,1.9376 0.09368,3.03073 0.304101,3.24115 0.246944,0.24694 -0.0029,0.3175 -1.124479,0.3175 h -1.441979 v -6.77743 -6.77742 l 1.935702,0.12422 c 2.276247,0.14608 3.189679,0.68148 3.684706,2.15974 0.408393,1.21955 0.08895,2.8632 -0.724815,3.72941 l -0.573302,0.61025 0.970489,3.00259 c 1.09632,3.3919 1.33976,3.82374 1.895531,3.36248 0.302434,-0.25099 0.357219,-1.39156 0.295627,-6.15482 -0.04158,-3.2157 -0.177639,-6.05509 -0.30235,-6.30975 -0.193509,-0.39515 -0.09342,-0.46302 0.682757,-0.46302 h 0.909503 l 1.143367,3.50572 1.143368,3.50573 1.172485,-3.50573 1.172488,-3.50572 h 0.903991 c 0.872818,0 1.185799,0.32377 0.639411,0.66145 -0.36226,0.22389 -0.353632,11.64236 0.0093,12.32052 0.255553,0.47751 0.175207,0.51178 -1.199933,0.51178 -1.37514,0 -1.455486,-0.0343 -1.199933,-0.51178 0.150641,-0.28147 0.26443,-1.3828 0.252865,-2.44739 l -0.02103,-1.93563 -0.479285,1.7198 c -0.26361,0.94588 -0.661263,2.37463 -0.883674,3.175 -0.222411,0.80036 -0.419079,1.33614 -0.437039,1.19062 z m -7.452333,-9.48407 c 0.613868,-0.73967 0.629131,-1.87004 0.03544,-2.62479 -0.984287,-1.25132 -1.324393,-0.96148 -1.324393,1.12865 0,1.63544 0.05811,1.85209 0.496771,1.85209 0.273222,0 0.629703,-0.16018 0.792178,-0.35595 z m 22.792599,5.84605 c -0.797906,-2.14643 -1.552884,-3.9026 -1.677728,-3.9026 -0.275066,0 -0.100343,5.23376 0.196527,5.88697 0.187233,0.41198 0.04104,0.46303 -1.325999,0.46303 -1.195003,0 -1.465876,-0.0706 -1.218932,-0.3175 0.410583,-0.41059 0.450162,-11.90483 0.04361,-12.66448 -0.246049,-0.45975 -0.181623,-0.51177 0.633751,-0.51177 0.892945,0 0.922883,0.0375 1.848742,2.3151 l 0.941099,2.3151 0.01265,-1.80333 c 0.007,-0.99183 -0.110601,-2.03363 -0.261241,-2.3151 -0.254725,-0.47596 -0.176025,-0.5118 1.124479,-0.51207 l 1.39837,-2.7e-4 -0.06903,5.4904 c -0.03797,3.01972 -0.0975,6.38337 -0.132292,7.47478 l -0.06325,1.98434 z m 62.614251,0.8599 c -0.55747,-1.52797 -1.21232,-3.31391 -1.45521,-3.96875 l -0.44163,-1.19063 -0.0751,3.00484 c -0.0497,1.98895 0.0284,3.12945 0.23083,3.37344 0.25802,0.31089 -0.10774,0.3686 -2.33629,0.3686 h -2.64219 l -1.16051,-3.24115 -1.16051,-3.24115 -0.0754,2.87218 c -0.0496,1.89092 0.0292,2.99824 0.23083,3.24115 0.25593,0.30838 0.0533,0.36897 -1.23431,0.36897 -1.19818,0 -1.46996,-0.0706 -1.22302,-0.3175 0.4504,-0.45041 0.4504,-12.14377 0,-12.59417 -0.24694,-0.24694 0.1567,-0.3175 1.8164,-0.3175 1.75186,0 2.25758,0.0973 2.82468,0.54336 1.43355,1.12764 1.52731,3.76427 0.18509,5.20498 l -0.53117,0.57014 0.9476,2.99233 c 1.01743,3.21281 1.5207,4.08325 1.95958,3.38919 0.38634,-0.61095 0.33263,-11.99144 -0.0584,-12.3825 -0.24694,-0.24694 -0.10924,-0.3175 0.61966,-0.3175 0.91899,0 0.95149,0.0372 1.67654,1.91823 0.40666,1.05502 0.84219,2.03134 0.96784,2.16958 0.32783,0.36068 0.28568,-2.95736 -0.0454,-3.57604 -0.25579,-0.47794 -0.17494,-0.51177 1.22302,-0.51177 1.21652,0 1.44214,0.066 1.20449,0.35235 -0.19265,0.23213 -0.31654,2.69199 -0.36312,7.20989 l -0.0707,6.85755 z m -7.73268,-6.93804 c 0.79059,-1.12873 0.36399,-2.71704 -0.77875,-2.8994 -0.4791,-0.0764 -0.53657,0.0845 -0.6074,1.7015 -0.0715,1.63247 -0.033,1.78594 0.44802,1.78594 0.28944,0 0.7116,-0.26462 0.93813,-0.58804 z m -109.125619,8.27657 c 0,-0.13693 0.119063,-0.32256 0.264584,-0.41249 0.162099,-0.10019 0.264583,-2.21038 0.264583,-5.44788 0,-4.4729 -0.06146,-5.30794 -0.400244,-5.43794 -0.220135,-0.0845 -0.577322,-0.007 -0.79375,0.17299 -0.338633,0.28104 -0.393506,0.15603 -0.393506,-0.89644 v -1.22302 h 2.513542 2.513541 v 1.24354 c 0,0.9672 -0.07056,1.17298 -0.3175,0.92604 -0.174625,-0.17463 -0.538257,-0.3175 -0.808071,-0.3175 -0.465279,0 -0.486423,0.30011 -0.410104,5.82111 l 0.08047,5.8211 -1.256771,-2.6e-4 c -0.691224,-1.6e-4 -1.256771,-0.11232 -1.256771,-0.24925 z m 5.225521,-0.0368 c -0.419963,-0.24461 -0.463021,-0.84175 -0.463021,-6.42133 0,-4.43183 -0.08876,-6.24041 -0.3175,-6.46914 -0.246944,-0.24695 0.0029,-0.31757 1.124479,-0.31778 l 1.441979,-2.6e-4 -0.08047,5.8211 -0.08047,5.8211 h 0.67578 0.675779 v -5.40834 c 0,-3.32016 -0.102156,-5.47148 -0.264583,-5.57187 -0.609753,-0.37684 -0.182974,-0.66147 0.992188,-0.6617 l 1.25677,-2.5e-4 -0.07966,6.373 c -0.0574,4.59205 0.0071,6.47755 0.230834,6.74712 0.263919,0.318 -0.06149,0.37292 -2.169297,0.36608 -1.363886,-0.004 -2.688152,-0.1294 -2.942813,-0.27773 z m 7.879593,-0.53623 c -2.681696,-2.35456 -2.601406,-9.95385 0.125691,-11.89648 0.362901,-0.25851 1.046773,-0.54816 1.519716,-0.64366 l 0.859896,-0.17365 v 1.51724 c 0,1.48402 -0.01122,1.50708 -0.512495,1.05344 -0.281872,-0.2551 -0.639906,-0.38506 -0.795631,-0.28882 -0.629842,0.38927 -1.13607,1.91926 -1.263947,3.82008 -0.152974,2.27386 0.184879,3.8687 1.006341,4.75044 0.532361,0.57142 0.584889,0.57863 1.062885,0.14605 0.488441,-0.44203 0.502847,-0.4122 0.502847,1.04115 0,1.48217 -0.0074,1.49622 -0.784544,1.49622 -0.500424,0 -1.123591,-0.29769 -1.720759,-0.82201 z m 3.289743,0.31023 c 0.407277,-0.761 0.358738,-6.03019 -0.05684,-6.16988 -0.264584,-0.0889 -0.264584,-0.29554 0,-1.03302 0.394129,-1.09857 0.443064,-4.88467 0.06615,-5.11762 -0.637593,-0.39405 -0.156265,-0.66145 1.190625,-0.66145 1.346889,0 1.828217,0.2674 1.190624,0.66145 -0.14552,0.0899 -0.255753,0.90064 -0.24496,1.80156 l 0.01962,1.63803 0.493634,-1.05834 c 0.271498,-0.58208 0.575541,-1.50481 0.675651,-2.05052 0.177487,-0.96748 0.210819,-0.99218 1.338828,-0.99218 1.247448,0 1.292464,0.0369 0.891419,0.73119 -0.145965,0.25269 -0.614273,1.46749 -1.040685,2.69957 l -0.775295,2.24014 0.7928,3.43085 c 0.436041,1.88697 0.908538,3.64711 1.049994,3.91142 0.230033,0.42982 0.13677,0.48058 -0.883115,0.48058 h -1.140308 l -0.495505,-2.31511 c -0.70871,-3.31125 -0.929325,-3.47916 -0.938615,-0.71437 -0.0051,1.51968 0.107949,2.51047 0.309454,2.71198 0.246944,0.24694 -0.01971,0.3175 -1.199934,0.3175 -1.418254,0 -1.499532,-0.0334 -1.243542,-0.51178 z m 6.614584,0 c 0.366114,-0.68409 0.356904,-5.91396 -0.01106,-6.28193 -0.20355,-0.20355 -0.196391,-0.58055 0.02506,-1.31969 0.325099,-1.08509 0.252488,-4.11675 -0.118045,-4.92856 -0.200138,-0.43849 -0.04941,-0.46842 1.998969,-0.39687 l 2.215427,0.0774 0.08285,1.19062 c 0.06664,0.95762 0.01744,1.1259 -0.251354,0.8599 -0.183811,-0.1819 -0.667578,-0.33073 -1.075036,-0.33073 -0.721591,0 -0.740834,0.0378 -0.740834,1.45521 v 1.45521 h 1.058334 c 0.582083,0 1.058333,0.0418 1.058333,0.0928 0,0.051 -0.13071,0.46776 -0.290468,0.92604 -0.235812,0.67646 -0.434938,0.83323 -1.058333,0.83323 h -0.767866 v 2.51354 2.51354 h 0.740834 c 0.407458,0 0.883708,-0.14287 1.058333,-0.3175 0.246943,-0.24694 0.3175,-0.0412 0.3175,0.92604 v 1.24355 h -2.258266 c -2.150696,0 -2.245222,-0.0244 -1.984376,-0.51178 z m 20.902083,0 c 0.385636,-0.72056 0.35563,-5.91524 -0.03643,-6.3073 -0.237376,-0.23737 -0.237376,-0.47042 0,-0.99141 0.170677,-0.37459 0.310322,-1.6134 0.310322,-2.7529 0,-2.55337 0.219818,-2.79807 2.513541,-2.79807 2.597468,0 2.513542,-0.2181 2.513542,6.53208 0,3.49613 0.108961,6.00943 0.273891,6.3176 0.255789,0.47795 0.174946,0.51178 -1.22302,0.51178 -1.249556,0 -1.446363,-0.0609 -1.191003,-0.3686 0.202485,-0.24399 0.280527,-1.38449 0.230833,-3.37344 -0.07004,-2.80343 -0.110546,-3.00484 -0.604243,-3.00484 -0.491701,0 -0.534484,0.20142 -0.604271,2.84493 -0.04395,1.66495 0.04221,3.06413 0.207748,3.37343 0.266997,0.49889 0.200253,0.52852 -1.190977,0.52852 -1.37514,0 -1.455486,-0.0343 -1.199933,-0.51178 z m 3.448892,-9.67468 c 0,-1.37584 -0.03608,-1.45521 -0.661459,-1.45521 -0.625379,0 -0.661458,0.0794 -0.661458,1.45521 0,1.37583 0.03608,1.45521 0.661458,1.45521 0.62538,0 0.661459,-0.0794 0.661459,-1.45521 z m 53.128333,9.86896 c 0.43425,-0.43426 0.44249,-6.21133 0.009,-6.3558 -0.23485,-0.0783 -0.23485,-0.31388 0,-0.98757 0.4094,-1.17438 0.40306,-4.83867 -0.009,-5.2508 -0.24694,-0.24694 0.19403,-0.3175 1.98437,-0.3175 h 2.30188 v 1.11125 c 0,0.86431 -0.0706,1.04069 -0.3175,0.79375 -0.17463,-0.17463 -0.65682,-0.3175 -1.07154,-0.3175 -0.75077,0 -0.75369,0.007 -0.67468,1.52135 l 0.0793,1.52136 1.00471,0.0829 c 0.89688,0.074 0.9857,0.14497 0.82752,0.66146 -0.27509,0.89824 -0.67247,1.26645 -1.27742,1.18367 -0.52427,-0.0717 -0.55899,0.0588 -0.63088,2.37149 l -0.0761,2.44739 h 0.75076 c 0.41291,0 0.89363,-0.14287 1.06826,-0.3175 0.24694,-0.24694 0.3175,-0.0412 0.3175,0.92604 v 1.24355 h -2.30188 c -1.79034,0 -2.23131,-0.0706 -1.98437,-0.3175 z m 20.73328,-0.17449 c -1.07455,-0.93195 -1.98571,-3.42069 -2.10914,-5.76089 -0.13911,-2.63735 0.39526,-4.4728 1.73341,-5.95397 0.78025,-0.86364 1.08851,-1.02232 1.98606,-1.02232 1.41557,0 2.66548,1.28636 3.26981,3.36517 0.89679,3.08486 -0.0271,7.85949 -1.80816,9.34491 -0.78148,0.65175 -2.33594,0.66546 -3.07198,0.0271 z m 2.19024,-2.13633 c 1.60447,-1.77292 1.59451,-6.53271 -0.017,-8.14426 -0.55734,-0.55735 -0.71225,-0.6 -1.07849,-0.29694 -1.69665,1.40393 -1.90777,6.85973 -0.32664,8.44086 0.64018,0.64018 0.84309,0.64023 1.42218,2.7e-4 z"
           id="path2468" />
      </g>
    </g>
  </g>
  <g
     inkscape:groupmode="layer"
     id="layer2"
     inkscape:label="Layer 2"
     style="display:none"
     transform="translate(-2.7604665,-33.668673)" />
</svg>
