<?xml version="1.0" encoding="UTF-8" standalone="no"?>
<svg
   xmlns:dc="http://purl.org/dc/elements/1.1/"
   xmlns:cc="http://creativecommons.org/ns#"
   xmlns:rdf="http://www.w3.org/1999/02/22-rdf-syntax-ns#"
   xmlns:svg="http://www.w3.org/2000/svg"
   xmlns="http://www.w3.org/2000/svg"
   xmlns:sodipodi="http://sodipodi.sourceforge.net/DTD/sodipodi-0.dtd"
   xmlns:inkscape="http://www.inkscape.org/namespaces/inkscape"
   width="19.987799mm"
   height="20.176785mm"
   viewBox="0 0 19.987799 20.176784"
   version="1.1"
   id="svg6110"
   inkscape:version="1.0.1 (3bc2e813f5, 2020-09-07)"
   sodipodi:docname="XC.svg">
  <defs
     id="defs6104">
    <clipPath
       clipPathUnits="userSpaceOnUse"
       id="clipPath5363-3">
      <ellipse
         style="fill:#ffffff;fill-opacity:0.0160643;stroke:#000000;stroke-width:0.598969;stroke-miterlimit:4;stroke-dasharray:none;stroke-opacity:1"
         id="ellipse5365-6"
         cx="39.831371"
         cy="53.310963"
         rx="53.791309"
         ry="53.419228" />
    </clipPath>
    <clipPath
       clipPathUnits="userSpaceOnUse"
       id="clipPath5357-4">
      <rect
         style="fill:#ffffff;fill-opacity:0.0160643;stroke:#000000;stroke-width:0.0980199;stroke-miterlimit:4;stroke-dasharray:none;stroke-opacity:1"
         id="rect5359-1"
         width="11.788973"
         height="13.491823"
         x="122.12822"
         y="78.854584"
         ry="1.7028518" />
    </clipPath>
    <clipPath
       clipPathUnits="userSpaceOnUse"
       id="clipPath5357-8">
      <rect
         style="fill:#ffffff;fill-opacity:0.0160643;stroke:#000000;stroke-width:0.0980199;stroke-miterlimit:4;stroke-dasharray:none;stroke-opacity:1"
         id="rect5359-19"
         width="11.788973"
         height="13.491823"
         x="122.12822"
         y="78.854584"
         ry="1.7028518" />
    </clipPath>
    <clipPath
       clipPathUnits="userSpaceOnUse"
       id="clipPath5357">
      <rect
         style="fill:#ffffff;fill-opacity:0.0160643;stroke:#000000;stroke-width:0.0980199;stroke-miterlimit:4;stroke-dasharray:none;stroke-opacity:1"
         id="rect5359"
         width="11.788973"
         height="13.491823"
         x="122.12822"
         y="78.854584"
         ry="1.7028518" />
    </clipPath>
    <clipPath
       clipPathUnits="userSpaceOnUse"
       id="clipPath5363">
      <ellipse
         style="fill:#ffffff;fill-opacity:0.0160643;stroke:#000000;stroke-width:0.598969;stroke-miterlimit:4;stroke-dasharray:none;stroke-opacity:1"
         id="ellipse5365"
         cx="39.831371"
         cy="53.310963"
         rx="53.791309"
         ry="53.419228" />
    </clipPath>
    <clipPath
       clipPathUnits="userSpaceOnUse"
       id="clipPath5430-9">
      <rect
         style="fill:#ffffff;fill-opacity:0.0160643;stroke:#000000;stroke-width:0.926506;stroke-miterlimit:4;stroke-dasharray:none;stroke-opacity:1"
         id="rect5432-7"
         width="49.910011"
         height="34.297958"
         x="7.3815045"
         y="3.0668349"
         ry="5.7575994" />
    </clipPath>
    <clipPath
       clipPathUnits="userSpaceOnUse"
       id="clipPath5430-1">
      <rect
         style="fill:#ffffff;fill-opacity:0.0160643;stroke:#000000;stroke-width:0.926506;stroke-miterlimit:4;stroke-dasharray:none;stroke-opacity:1"
         id="rect5432-9"
         width="49.910011"
         height="34.297958"
         x="7.3815045"
         y="3.0668349"
         ry="5.7575994" />
    </clipPath>
  </defs>
  <sodipodi:namedview
     id="base"
     pagecolor="#ffffff"
     bordercolor="#666666"
     borderopacity="1.0"
     inkscape:pageopacity="0.0"
     inkscape:pageshadow="2"
     inkscape:zoom="5.6"
     inkscape:cx="49.293707"
     inkscape:cy="30.844027"
     inkscape:document-units="mm"
     inkscape:current-layer="g6647"
     inkscape:document-rotation="0"
     showgrid="false"
     inkscape:pagecheckerboard="true"
     inkscape:window-width="1920"
     inkscape:window-height="1057"
     inkscape:window-x="-8"
     inkscape:window-y="-8"
     inkscape:window-maximized="1" />
  <metadata
     id="metadata6107">
    <rdf:RDF>
      <cc:Work
         rdf:about="">
        <dc:format>image/svg+xml</dc:format>
        <dc:type
           rdf:resource="http://purl.org/dc/dcmitype/StillImage" />
        <dc:title></dc:title>
      </cc:Work>
    </rdf:RDF>
  </metadata>
  <g
     inkscape:label="Layer 1"
     inkscape:groupmode="layer"
     id="layer1"
     transform="translate(-96.122916,-324.93082)">
    <g
       id="g6647"
       transform="translate(49.231398,248.46266)">
      <g
         id="g1690"
         transform="translate(-48.555409,64.615728)">
        <ellipse
           style="fill:#feb3f8;fill-opacity:1;stroke:#000000;stroke-width:0.9;stroke-miterlimit:4;stroke-dasharray:none;stroke-opacity:1"
           id="path607-4-5-9-7-6"
           ry="9.6383924"
           rx="9.5438995"
           cy="21.940821"
           cx="105.44083" />
        <g
           id="g332"
           transform="matrix(0.14518037,0,0,0.17284286,98.390441,13.523316)"
           style="stroke-width:5.6815;stroke-miterlimit:4;stroke-dasharray:none">
          <g
             id="g311"
             style="stroke-width:5.6815;stroke-miterlimit:4;stroke-dasharray:none">
            <g
               id="g309"
               style="stroke-width:5.6815;stroke-miterlimit:4;stroke-dasharray:none">
              <path
                 d="m 71.14,28.183 c 3.266,-0.256 5.716,-3.146 5.456,-6.447 -0.26,-3.308 -3.13,-5.771 -6.396,-5.514 -3.272,0.257 -5.712,3.136 -5.453,6.445 0.261,3.3 3.122,5.772 6.393,5.516 z"
                 id="path303"
                 style="stroke-width:5.6815;stroke-miterlimit:4;stroke-dasharray:none" />
              <path
                 d="M 94.185,77 H 92 v 1.57 C 92,79.798 90.765,80 90.765,80 H 66.702 L 81.549,38.064 c 1.361,-1.395 2.356,-2.259 2.356,-2.259 1.165,-1.132 1.191,-2.909 0.059,-4.074 -1.132,-1.165 -2.994,-1.149 -4.158,-0.017 l -6.948,6.774 -4.716,-8.274 c -0.01,-0.024 -0.015,-0.031 -0.015,-0.031 -0.081,-0.194 -0.178,-0.376 -0.285,-0.555 -0.923,-0.358 -1.78,-0.89 -2.524,-1.581 -0.312,-0.29 -0.597,-0.603 -0.856,-0.935 -0.272,-0.09 -0.55,-0.164 -0.83,-0.225 L 49.769,22.766 c 0,0 -2.365,-0.83 -3.832,1.48 -0.866,1.364 -4.929,12.332 -4.929,12.332 -0.314,0.754 -0.29,1.564 10e-4,2.262 L 4.133,51.16 4.568,52.462 41.876,39.997 c 0.212,0.171 0.45,0.316 0.714,0.426 1.499,0.625 3.221,-0.085 3.845,-1.584 l 3.718,-9.603 5.545,1.912 c -1.06,1.219 -1.978,2.27 -1.978,2.27 l -8.007,9.43 c -1.142,1.39 -1.66,2.887 -1.511,4.774 0.143,1.818 0.987,3.39 2.273,4.478 l 14.02,12.223 -3.738,12.271 C 56.241,77.864 56.499,79 57.379,80 H 4 v 2 h 87.612 c 3.095,-0.535 2.573,-5 2.573,-5 z M 66.894,59.736 56.89,48.967 l 9.06,-10.722 4.462,6.972 c 0,0 1.426,2.02 3.683,0.475 0.646,-0.442 2.967,-3.073 5.189,-5.321 L 65.247,80 h -2.378 c 0.087,0 0.17,0.127 0.247,0.012 0.146,-0.23 0.265,-0.305 0.364,-0.549 l 4.554,-14.894 c 0,10e-4 0.893,-2.837 -1.14,-4.833 z"
                 id="path305"
                 style="stroke-width:5.6815;stroke-miterlimit:4;stroke-dasharray:none" />
              <path
                 d="m 29.177,79.507 c 0.248,-0.114 0.481,-0.253 0.696,-0.404 L 41.849,69.021 c 0,0 4.536,-7.609 7.065,-12.194 l -3.718,-3.241 c -1.259,-1.07 -2.155,-2.461 -2.618,-4.024 l -6.865,15.069 -10.009,8.546 c -1.387,0.97 -1.933,2.804 -1.264,4.419 0.783,1.845 2.907,2.703 4.737,1.911 z"
                 id="path307"
                 style="stroke-width:5.6815;stroke-miterlimit:4;stroke-dasharray:none" />
            </g>
          </g>
        </g>
      </g>
    </g>
  </g>
</svg>
